<svg xmlns="http://www.w3.org/2000/svg" xmlns:xlink="http://www.w3.org/1999/xlink" width="500" height="500" viewBox="0 0 500 500">
  <defs>
    <clipPath id="clip-revenue">
      <rect width="500" height="500"/>
    </clipPath>
  </defs>
  <g id="revenue" clip-path="url(#clip-revenue)">
    <g id="revenue-2" data-name="revenue" transform="translate(-18 -29.65)">
      <g id="freepik--background-complete--inject-2" transform="translate(30.848 61.422)">
        <path id="Path_651" data-name="Path 651" d="M111.741,167.6A41.3,41.3,0,1,1,63.25,135.157,41.3,41.3,0,0,1,111.741,167.6Z" transform="translate(-29.923 -54.22)" fill="#f5f5f5"/>
        <path id="Path_652" data-name="Path 652" d="M101.39,168.828a31.444,31.444,0,1,1-13.342-20.055,31.476,31.476,0,0,1,13.342,20.055Z" transform="translate(-29.217 -53.515)" fill="#ebebeb"/>
        <path id="Path_653" data-name="Path 653" d="M101.231,167.922c-.183,0-.582-1.293-1.541-3.556A33.534,33.534,0,0,0,94.3,155.6a31.7,31.7,0,0,0-5.194-4.806,31.346,31.346,0,0,0-7.08-3.9,28.641,28.641,0,0,0-4.192-1.315,30.3,30.3,0,0,0-4.494-.722,29.961,29.961,0,0,0-4.72,0,33.679,33.679,0,0,0-4.8.711,32.79,32.79,0,0,0-4.644,1.455,32.081,32.081,0,0,0-4.224,2.091,30.292,30.292,0,0,0-3.761,2.554,28.09,28.09,0,0,0-3.233,3,31.562,31.562,0,0,0-4.612,6.638,32.328,32.328,0,0,0-2.565,6.595,33.189,33.189,0,0,0-1.078,10.248c.119,2.457.345,3.825.162,3.869s-.679-1.261-1.078-3.772a29.149,29.149,0,0,1,.334-10.776,31.369,31.369,0,0,1,2.446-7.091,31.907,31.907,0,0,1,4.8-7.188,30.345,30.345,0,0,1,3.362-3.287,30.01,30.01,0,0,1,3.987-2.866A32.256,32.256,0,0,1,68.45,142.4a33.278,33.278,0,0,1,5.086.075,31.938,31.938,0,0,1,4.838.841,30.8,30.8,0,0,1,4.45,1.487,31.346,31.346,0,0,1,12.769,9.7,29.235,29.235,0,0,1,4.989,9.515C101.284,166.478,101.371,167.889,101.231,167.922Z" transform="translate(-29.262 -53.601)" fill="#e0e0e0"/>
        <path id="Path_654" data-name="Path 654" d="M76.386,191.934l1.131,5.388-4.784,1.013-1.078-5.216c-4.8.722-9.7.2-12.737-1.3l1.4-6.4a19.666,19.666,0,0,0,10.011,1.433l-1.7-8c-5.582-.162-11.853-.679-13.351-7.543-1.078-5.075,1.681-10.216,9.073-12.672l-1.078-5.323,4.784-1.013,1.078,5.216a22.123,22.123,0,0,1,10.345.862l-1.142,6.4a20.108,20.108,0,0,0-7.856-.937l1.724,8.136c5.582.119,11.853.657,13.233,7.4C86.44,184.3,83.714,189.423,76.386,191.934Zm-9.278-20.151-1.444-6.8c-2.414,1.078-3.125,2.716-2.791,4.31S64.856,171.556,67.108,171.783Zm10.679,9.8c-.356-1.681-1.929-2.3-4.149-2.575l1.4,6.606c2.284-1.035,3.082-2.5,2.748-4.03Z" transform="translate(-27.973 -52.828)" fill="#e0e0e0"/>
        <path id="Path_655" data-name="Path 655" d="M212.046,302.52a24.159,24.159,0,1,1-28.362-18.976,24.159,24.159,0,0,1,28.362,18.976Z" transform="translate(-19.506 -42.681)" fill="#f5f5f5"/>
        <path id="Path_656" data-name="Path 656" d="M206,303.227a18.384,18.384,0,1,1-7.808-11.717A18.416,18.416,0,0,1,206,303.227Z" transform="translate(-19.092 -42.268)" fill="#ebebeb"/>
        <path id="Path_657" data-name="Path 657" d="M205.9,302.707a10.957,10.957,0,0,1-.905-2.08,19.622,19.622,0,0,0-3.168-5.118,19.279,19.279,0,0,0-3.039-2.812,18.4,18.4,0,0,0-4.149-2.284,17.336,17.336,0,0,0-2.435-.765,16.311,16.311,0,0,0-2.629-.42,16.813,16.813,0,0,0-2.759,0,19.411,19.411,0,0,0-2.812.409,20.423,20.423,0,0,0-2.716.851,18.153,18.153,0,0,0-2.468,1.229,17.639,17.639,0,0,0-4.041,3.233,17.972,17.972,0,0,0-2.737,3.858,19.106,19.106,0,0,0-1.509,3.858,19.8,19.8,0,0,0-.614,5.991,10.9,10.9,0,0,1,.1,2.263,5.27,5.27,0,0,1-.636-2.155,17.112,17.112,0,0,1,.183-6.293A19.213,19.213,0,0,1,171,298.321a18.847,18.847,0,0,1,2.813-4.2,18.381,18.381,0,0,1,1.961-1.918,18.721,18.721,0,0,1,2.338-1.681,19.063,19.063,0,0,1,2.651-1.336,20.474,20.474,0,0,1,2.92-.927,19.875,19.875,0,0,1,3.039-.442,18.219,18.219,0,0,1,2.974,0,18.244,18.244,0,0,1,9.752,3.922,18.674,18.674,0,0,1,3.093,3.1,16.983,16.983,0,0,1,2.92,5.571,5.237,5.237,0,0,1,.442,2.3Z" transform="translate(-19.119 -42.319)" fill="#e0e0e0"/>
        <path id="Path_658" data-name="Path 658" d="M191.368,316.75l.668,3.136-2.8.593-.647-3.05a13.588,13.588,0,0,1-7.425-.765l.808-3.75a11.628,11.628,0,0,0,5.862.841l-.991-4.677c-3.233-.1-6.961-.4-7.812-4.407-.636-2.963.981-5.97,5.3-7.414l-.657-3.114,2.8-.593.647,3.05a13,13,0,0,1,6.045.506l-.668,3.739a11.972,11.972,0,0,0-4.591-.55l1,4.763c3.233.075,6.907.388,7.748,4.31C197.252,312.354,195.657,315.285,191.368,316.75Zm-5.388-11.789-.851-3.976c-1.412.657-1.821,1.595-1.627,2.522s1.131,1.3,2.446,1.455Zm6.25,5.733c-.216-.981-1.131-1.336-2.435-1.509l.83,3.869c1.315-.6,1.756-1.465,1.573-2.36Z" transform="translate(-18.365 -41.869)" fill="#e0e0e0"/>
        <path id="Path_659" data-name="Path 659" d="M440.106,240.266l-1.25,5.216L434.2,244.4l1.228-5.075c-4.537-1.379-8.621-3.89-10.69-6.466l3.922-5.054a19.4,19.4,0,0,0,8.233,5.463l1.864-7.759c-4.86-2.5-10.2-5.6-8.621-12.252,1.185-4.925,5.787-8.3,13.33-7.371l1.239-5.151,4.655,1.078-1.218,5.075A21.445,21.445,0,0,1,456.9,212l-3.7,5.151a19.656,19.656,0,0,0-6.53-4.127l-1.907,7.9c4.871,2.457,10.129,5.539,8.545,12.091C452.143,237.809,447.65,241.139,440.106,240.266Zm.3-21.66L441.992,212c-2.6,0-3.9,1.078-4.31,2.619s.819,2.845,2.716,3.987Zm5.291,13.125c.4-1.627-.744-2.834-2.575-4.009l-1.541,6.412c2.435.043,3.75-.916,4.106-2.4Z" transform="translate(0.709 -49.07)" fill="#ebebeb"/>
        <path id="Path_660" data-name="Path 660" d="M455.123,128.309l.409,9.235-8.254.366-.4-8.987c-8.19-.14-16.164-2.349-20.83-5.7l4.095-10.269a33.405,33.405,0,0,0,16.261,5.162l-.6-13.782c-9.256-1.821-19.623-4.429-20.151-16.228-.388-8.739,5.636-16.53,18.61-18.588l-.41-9.159,8.254-.366.4,8.987c6.207.226,12.306,1.606,16.972,4.31L465.8,83.621a33.847,33.847,0,0,0-12.834-3.75l.614,14.009c9.256,1.735,19.4,4.31,19.968,15.981C473.96,118.46,468.054,126.165,455.123,128.309Zm-9.86-36.11-.506-11.724c-4.31,1.185-5.959,3.653-5.841,6.379s2.672,4.4,6.358,5.345Zm15.086,19.256c-.119-2.888-2.586-4.31-6.185-5.388l.5,11.39c4.084-1.131,5.851-3.362,5.679-6Z" transform="translate(0.779 -59.99)" fill="#ebebeb"/>
      </g>
      <g id="freepik--Floor--inject-2" transform="translate(18 485.032)">
        <path id="Path_661" data-name="Path 661" d="M518,453.38c0,.151-111.929.28-250,.28s-250-.129-250-.28,111.907-.28,250-.28S518,453.229,518,453.38Z" transform="translate(-18 -453.1)" fill="#263238"/>
      </g>
      <g id="freepik--Screen--inject-2" transform="translate(89.886 41.53)">
        <rect id="Rectangle_13" data-name="Rectangle 13" width="355.787" height="266.897" rx="7.21" transform="translate(0.248 0.539)" fill="#fff"/>
        <path id="Path_662" data-name="Path 662" d="M432.975,308.948a7.8,7.8,0,0,0,7.715-8.082c0-8.211,0-20.313-.054-35.894,0-31.175-.054-76.282-.1-132.015V50.941a10.776,10.776,0,0,0-.237-2.953,7.543,7.543,0,0,0-3.448-4.634,7.381,7.381,0,0,0-2.8-.981,28.5,28.5,0,0,0-3.05-.086H92.76a7.543,7.543,0,0,0-6.466,3.578,7.338,7.338,0,0,0-1.078,3.621c0,1.3,0,2.64,0,3.955V301.265a7.515,7.515,0,0,0,5.614,7.134,12.057,12.057,0,0,0,3.233.248h158.47l132.015.086,35.894.054H384.548l-132.015.1H94.085a12.93,12.93,0,0,1-3.384-.269,8.039,8.039,0,0,1-5.991-7.608V49.519a8.007,8.007,0,0,1,1.175-3.89,8.1,8.1,0,0,1,6.9-3.858H430.928a25.279,25.279,0,0,1,3.114.086,8.127,8.127,0,0,1,6.638,5.991,11.452,11.452,0,0,1,.248,3.071v82.037c0,55.733-.065,100.841-.086,132.015v35.894a7.845,7.845,0,0,1-4.72,7.468,8.253,8.253,0,0,1-2.306.593Z" transform="translate(-84.71 -41.512)" fill="#263238"/>
        <rect id="Rectangle_14" data-name="Rectangle 14" width="156.002" height="70.528" rx="8.21" transform="translate(183.254 41.185)" fill="#267fc9"/>
        <g id="Group_30" data-name="Group 30" transform="translate(258.718 52.813)" opacity="0.2">
          <path id="Path_663" data-name="Path 663" d="M333.518,111.219v2.8h-2.5v-2.726a11.94,11.94,0,0,1-6.218-1.94l1.379-3.05a10.086,10.086,0,0,0,4.838,1.778V103.9c-2.769-.668-5.862-1.595-5.862-5.162,0-2.651,1.918-4.925,5.862-5.388V90.54h2.5v2.726a11.358,11.358,0,0,1,5.075,1.519l-1.25,3.071a10.323,10.323,0,0,0-3.825-1.293v4.246c2.769.647,5.819,1.573,5.819,5.086C339.337,108.5,337.44,110.745,333.518,111.219Zm-2.5-11.034V96.639c-1.325.291-1.843,1.078-1.843,1.843s.744,1.347,1.843,1.7Zm4.31,6.013c0-.873-.722-1.347-1.8-1.724v3.448c1.239-.269,1.789-.927,1.789-1.724Z" transform="translate(-324.8 -90.54)" fill="#fff"/>
        </g>
        <g id="Group_31" data-name="Group 31" transform="translate(272.662 75.043)" opacity="0.2">
          <path id="Path_664" data-name="Path 664" d="M344.486,127.258v2.155h-1.94v-2.155a9.17,9.17,0,0,1-4.806-1.541l1.078-2.36a7.813,7.813,0,0,0,3.75,1.369v-3.233c-2.155-.528-4.537-1.239-4.537-4.009,0-2.047,1.487-3.8,4.537-4.159V111.17h1.918v2.155a8.621,8.621,0,0,1,3.922,1.175l-.97,2.381a7.694,7.694,0,0,0-2.953-1v3.287c2.155.5,4.5,1.218,4.5,3.944C348.99,125.146,347.525,126.892,344.486,127.258Zm-1.94-8.545v-2.748c-1.024.226-1.422.787-1.422,1.433S341.695,118.444,342.546,118.713Zm3.33,4.655c0-.679-.56-1.078-1.39-1.336V124.7C345.456,124.489,345.876,123.993,345.876,123.368Z" transform="translate(-337.74 -111.17)" fill="#fff"/>
        </g>
        <path id="Path_665" data-name="Path 665" d="M357.787,107.528a2,2,0,0,1,0,.442c0,.334,0,.754,0,1.272v21.282a6.951,6.951,0,0,0,3.233,1.692,16.9,16.9,0,0,0,4.019.453,13.48,13.48,0,0,0,8.049-2.4l-.1.215h0V107.636a3.481,3.481,0,0,0-1.239-1.2,8.437,8.437,0,0,0-1.606-.7,14.645,14.645,0,0,0-3.233-.55,20.173,20.173,0,0,0-5.3.291,8.717,8.717,0,0,0-3.125,1.261,6.724,6.724,0,0,0-.679.582c-.129.151-.194.237-.2.226a2.435,2.435,0,0,1,.8-.916,8.362,8.362,0,0,1,3.157-1.412,20.226,20.226,0,0,1,5.388-.409,14.525,14.525,0,0,1,3.319.528A5.2,5.2,0,0,1,373.4,107.5h0v23.082l-.1.075a13.879,13.879,0,0,1-8.416,2.532,16.509,16.509,0,0,1-4.149-.5,7.413,7.413,0,0,1-3.556-1.886l-.054-.054v-.108c.086-6.81.162-12.586.216-16.735,0-1.983.075-3.578.108-4.741v-1.239a2.563,2.563,0,0,1,.334-.4Z" transform="translate(-63.574 -36.623)" fill="#fff"/>
        <path id="Path_666" data-name="Path 666" d="M373.333,107.371a6.637,6.637,0,0,1-2.047,1.347,12.931,12.931,0,0,1-5.787,1.164,13.89,13.89,0,0,1-5.819-1.013,6.616,6.616,0,0,1-2.08-1.293c0-.086.851.4,2.231.927a15.69,15.69,0,0,0,5.668.819,14.3,14.3,0,0,0,5.625-.97C372.492,107.791,373.279,107.285,373.333,107.371Z" transform="translate(-63.537 -36.422)" fill="#fff"/>
        <path id="Path_667" data-name="Path 667" d="M373.333,112.681a6.53,6.53,0,0,1-2.047,1.358,12.931,12.931,0,0,1-5.787,1.153,13.718,13.718,0,0,1-5.819-1.013,6.185,6.185,0,0,1-2.08-1.293c0-.086.851.4,2.231.927a15.69,15.69,0,0,0,5.668.819,14.321,14.321,0,0,0,5.625-.959C372.492,113.1,373.279,112.605,373.333,112.681Z" transform="translate(-63.537 -36.01)" fill="#fff"/>
        <path id="Path_668" data-name="Path 668" d="M373.333,118a6.638,6.638,0,0,1-2.047,1.347,13.017,13.017,0,0,1-5.787,1.164,13.89,13.89,0,0,1-5.819-1.013,6.616,6.616,0,0,1-2.08-1.293c0-.086.851.4,2.231.927a15.927,15.927,0,0,0,5.668.819,14.3,14.3,0,0,0,5.625-.97C372.492,118.421,373.279,117.914,373.333,118Z" transform="translate(-63.537 -35.598)" fill="#fff"/>
        <path id="Path_669" data-name="Path 669" d="M373.333,123.311a6.465,6.465,0,0,1-2.047,1.347,12.726,12.726,0,0,1-5.787,1.164,13.89,13.89,0,0,1-5.819-1.013,6.39,6.39,0,0,1-2.08-1.293c0-.086.851.4,2.231.927a15.69,15.69,0,0,0,5.668.819,14.515,14.515,0,0,0,5.625-.959C372.492,123.731,373.279,123.235,373.333,123.311Z" transform="translate(-63.537 -35.186)" fill="#fff"/>
        <path id="Path_670" data-name="Path 670" d="M372.3,96.637a2.9,2.9,0,0,1,0,.668v34.224l-.065-.162a7.187,7.187,0,0,0,3.351,1.7,16.057,16.057,0,0,0,4.03.442,13.427,13.427,0,0,0,7.963-2.4l-.1.216h0c0-13.384.054-25.571.065-34.666v.075a3.33,3.33,0,0,0-1.282-1.218,7.469,7.469,0,0,0-1.627-.711,14.99,14.99,0,0,0-3.233-.539,19.515,19.515,0,0,0-5.3.323,8.426,8.426,0,0,0-3.082,1.272,4.215,4.215,0,0,0-.647.571c-.14.14-.194.226-.2.226s0-.108.151-.269a3.87,3.87,0,0,1,.636-.625,8,8,0,0,1,3.093-1.4,19.547,19.547,0,0,1,5.388-.431,14.666,14.666,0,0,1,3.341.517,5.269,5.269,0,0,1,3.233,2.155v.086c0,9.095,0,21.282.075,34.666v.151l-.1.075a13.944,13.944,0,0,1-8.33,2.543,17.37,17.37,0,0,1-4.17-.474,7.468,7.468,0,0,1-3.631-1.907l-.054-.065v-.108c.086-10.151.162-18.869.216-25.1,0-3.05.086-5.485.108-7.22,0-.8,0-1.433.054-1.918a3.534,3.534,0,0,1,.119-.7Z" transform="translate(-62.436 -37.467)" fill="#fff"/>
        <path id="Path_671" data-name="Path 671" d="M387.853,107.371a6.638,6.638,0,0,1-2.047,1.347,12.845,12.845,0,0,1-5.787,1.164,13.89,13.89,0,0,1-5.819-1.013,6.617,6.617,0,0,1-2.08-1.293c0-.086.851.4,2.231.927a15.69,15.69,0,0,0,5.668.819,14.3,14.3,0,0,0,5.625-.97C387.012,107.791,387.8,107.285,387.853,107.371Z" transform="translate(-62.411 -36.422)" fill="#fff"/>
        <path id="Path_672" data-name="Path 672" d="M387.853,112.681a6.53,6.53,0,0,1-2.047,1.358,12.845,12.845,0,0,1-5.787,1.153,13.717,13.717,0,0,1-5.819-1.013,6.186,6.186,0,0,1-2.08-1.293c0-.086.851.4,2.231.927a15.69,15.69,0,0,0,5.668.819,14.321,14.321,0,0,0,5.625-.959C387.012,113.1,387.8,112.605,387.853,112.681Z" transform="translate(-62.411 -36.01)" fill="#fff"/>
        <path id="Path_673" data-name="Path 673" d="M387.853,101.921a6.53,6.53,0,0,1-2.047,1.358,12.845,12.845,0,0,1-5.787,1.153,13.718,13.718,0,0,1-5.819-1.013,6.39,6.39,0,0,1-2.08-1.293c0-.086.851.4,2.231.927a15.689,15.689,0,0,0,5.668.819,14.321,14.321,0,0,0,5.625-.959C387.012,102.341,387.8,101.845,387.853,101.921Z" transform="translate(-62.411 -36.845)" fill="#fff"/>
        <path id="Path_674" data-name="Path 674" d="M387.853,96.441a6.638,6.638,0,0,1-2.047,1.347,12.985,12.985,0,0,1-5.787,1.164,13.89,13.89,0,0,1-5.819-1.013,6.616,6.616,0,0,1-2.08-1.293c0-.086.851.388,2.231.916a15.668,15.668,0,0,0,5.668.83,14.3,14.3,0,0,0,5.625-.97C387.012,96.861,387.8,96.354,387.853,96.441Z" transform="translate(-62.411 -37.27)" fill="#fff"/>
        <path id="Path_675" data-name="Path 675" d="M387.853,118a6.639,6.639,0,0,1-2.047,1.347,12.985,12.985,0,0,1-5.787,1.164A13.89,13.89,0,0,1,374.2,119.5a6.616,6.616,0,0,1-2.08-1.293c0-.086.851.4,2.231.927a15.927,15.927,0,0,0,5.668.819,14.3,14.3,0,0,0,5.625-.97C387.012,118.421,387.8,117.914,387.853,118Z" transform="translate(-62.411 -35.598)" fill="#fff"/>
        <path id="Path_676" data-name="Path 676" d="M387.853,123.311a6.465,6.465,0,0,1-2.047,1.347,12.694,12.694,0,0,1-5.787,1.164,13.889,13.889,0,0,1-5.819-1.013,6.39,6.39,0,0,1-2.08-1.293c0-.086.851.4,2.231.927a15.69,15.69,0,0,0,5.668.819,14.516,14.516,0,0,0,5.625-.959C387.012,123.731,387.8,123.235,387.853,123.311Z" transform="translate(-62.411 -35.186)" fill="#fff"/>
        <rect id="Rectangle_15" data-name="Rectangle 15" width="156.002" height="70.528" rx="8.22" transform="translate(20.614 41.185)" fill="#e0e0e0"/>
        <path id="Path_677" data-name="Path 677" d="M171.948,111.169v2.8h-2.5v-2.726a11.853,11.853,0,0,1-6.218-1.994l1.369-3.05a10.054,10.054,0,0,0,4.849,1.767V103.8c-2.769-.668-5.873-1.595-5.873-5.162,0-2.651,1.929-4.925,5.873-5.388V90.49h2.5v2.7a11.272,11.272,0,0,1,5.065,1.519l-1.25,3.071a10.022,10.022,0,0,0-3.815-1.293v4.246c2.769.647,5.819,1.573,5.819,5.086C177.767,108.453,175.913,110.695,171.948,111.169Zm-2.5-11.034V96.589c-1.325.291-1.853,1.024-1.853,1.843S168.37,99.779,169.448,100.134Zm4.31,6.013c0-.873-.733-1.347-1.8-1.724v3.448c1.239-.269,1.8-.927,1.8-1.746Z" transform="translate(-78.618 -37.731)" fill="#ebebeb"/>
        <path id="Path_678" data-name="Path 678" d="M182.916,127.208v2.155h-1.94v-2.155a9.213,9.213,0,0,1-4.817-1.541l1.078-2.36a7.813,7.813,0,0,0,3.75,1.369v-3.233c-2.155-.517-4.547-1.228-4.547-4,0-2.047,1.5-3.8,4.547-4.159V111.13h1.94v2.155a8.62,8.62,0,0,1,3.922,1.175l-.97,2.381a7.748,7.748,0,0,0-2.953-1v3.233c2.155.5,4.5,1.218,4.5,3.944C187.421,125.1,185.945,126.841,182.916,127.208Zm-1.94-8.545v-2.748c-1.024.226-1.433.787-1.433,1.433S180.126,118.393,180.977,118.662Zm3.33,4.655c0-.679-.56-1.078-1.39-1.336v2.672C183.876,124.438,184.307,123.921,184.307,123.318Z" transform="translate(-77.615 -36.13)" fill="#ebebeb"/>
        <path id="Path_689" data-name="Path 689" d="M122.077,113.22v15.851h-3.664V116.216H115.18v-2.942Z" transform="translate(-82.346 -35.968)" fill="#263238"/>
        <path id="Path_690" data-name="Path 690" d="M136.052,126.107v2.985h-12v-2.371l6.121-5.776c1.4-1.347,1.649-2.155,1.649-2.931,0-1.239-.862-1.972-2.532-1.972a3.89,3.89,0,0,0-3.233,1.595l-2.672-1.724a7.371,7.371,0,0,1,6.293-2.953c3.534,0,5.894,1.821,5.894,4.7,0,1.541-.431,2.942-2.651,5l-3.642,3.448Z" transform="translate(-81.71 -35.989)" fill="#263238"/>
        <path id="Path_691" data-name="Path 691" d="M136.51,121.171c0-5.237,2.9-8.211,6.8-8.211s6.789,2.974,6.789,8.211-2.877,8.2-6.789,8.2S136.51,126.4,136.51,121.171Zm9.9,0c0-3.61-1.272-5.108-3.1-5.108s-3.082,1.5-3.082,5.108,1.261,5.1,3.082,5.1S146.413,124.77,146.413,121.171Z" transform="translate(-80.691 -35.988)" fill="#263238"/>
        <rect id="Rectangle_16" data-name="Rectangle 16" width="45.7" height="29.343" rx="3.17" transform="translate(118.416 63.233)" fill="#f5f5f5"/>
        <rect id="Rectangle_17" data-name="Rectangle 17" width="7.446" height="2.705" transform="translate(123.599 68.631)" fill="#e0e0e0"/>
        <path id="Path_692" data-name="Path 692" d="M208.52,112.913a24.053,24.053,0,0,1-5.269.291,24.191,24.191,0,0,1-5.28-.291,25.5,25.5,0,0,1,5.28-.28,25.345,25.345,0,0,1,5.269.28Z" transform="translate(-75.923 -36.016)" fill="#e0e0e0"/>
        <path id="Path_693" data-name="Path 693" d="M214.839,112.91a12.08,12.08,0,0,1-5.269,0,12.533,12.533,0,0,1,5.269,0Z" transform="translate(-75.023 -36.014)" fill="#e0e0e0"/>
        <path id="Path_694" data-name="Path 694" d="M233.237,112.91a26.8,26.8,0,0,1-7.877,0A27.824,27.824,0,0,1,233.237,112.91Z" transform="translate(-73.797 -36.014)" fill="#e0e0e0"/>
        <path id="Path_695" data-name="Path 695" d="M224.178,112.91a25.011,25.011,0,0,1-7.608,0,25.959,25.959,0,0,1,7.608,0Z" transform="translate(-74.479 -36.014)" fill="#e0e0e0"/>
        <path id="Path_696" data-name="Path 696" d="M205.951,119.02a27.22,27.22,0,0,1-7.791,0A27.219,27.219,0,0,1,205.951,119.02Z" transform="translate(-75.908 -35.54)" fill="#e0e0e0"/>
        <path id="Path_697" data-name="Path 697" d="M212.567,121.613a45.658,45.658,0,0,1-7.209.28,45.467,45.467,0,0,1-7.2-.28,47.059,47.059,0,0,1,7.2-.28,47.264,47.264,0,0,1,7.209.28Z" transform="translate(-75.908 -35.341)" fill="#e0e0e0"/>
        <path id="Path_698" data-name="Path 698" d="M233.108,121.613a16.681,16.681,0,0,1-6.088,0,16.678,16.678,0,0,1,6.088,0Z" transform="translate(-73.669 -35.341)" fill="#e0e0e0"/>
        <path id="Path_712" data-name="Path 712" d="M280.349,117.5v11.239h-2.608v-9.149H275.5V117.5Z" transform="translate(-79.907 -35.636)" fill="#fff"/>
        <path id="Path_713" data-name="Path 713" d="M290.337,125.2c0,1.994-1.465,3.728-4.677,3.728a7.845,7.845,0,0,1-4.31-1.2l1.078-1.994a5.388,5.388,0,0,0,3.233,1.013c1.3,0,2.155-.55,2.155-1.466s-.582-1.466-2.619-1.466H282.32l.571-6.325h6.864v2.091h-4.8l-.183,2.155h.916C289.022,121.724,290.337,123.222,290.337,125.2Z" transform="translate(-79.453 -35.636)" fill="#fff"/>
        <path id="Path_714" data-name="Path 714" d="M293.714,126.7a3.653,3.653,0,0,1-.442,1.606l-.916,2.317h-1.584l.711-2.554a1.39,1.39,0,0,1-.873-1.369,1.5,1.5,0,0,1,1.563-1.541,1.476,1.476,0,0,1,1.541,1.541Z" transform="translate(-78.735 -35.042)" fill="#fff"/>
        <path id="Path_715" data-name="Path 715" d="M294.38,123.139c0-3.718,2.058-5.819,4.817-5.819s4.828,2.155,4.828,5.819-2.047,5.808-4.828,5.808S294.38,126.846,294.38,123.139Zm7.026,0c0-2.554-.905-3.621-2.155-3.621s-2.155,1.078-2.155,3.621.894,3.61,2.155,3.61S301.406,125.693,301.406,123.139Z" transform="translate(-78.443 -35.65)" fill="#fff"/>
        <path id="Path_716" data-name="Path 716" d="M304.5,123.139c0-3.718,2.058-5.819,4.817-5.819s4.817,2.155,4.817,5.819-2.037,5.808-4.817,5.808S304.5,126.846,304.5,123.139Zm7.015,0c0-2.554-.894-3.621-2.155-3.621s-2.155,1.078-2.155,3.621.905,3.61,2.155,3.61,2.144-1.056,2.144-3.61Z" transform="translate(-77.657 -35.65)" fill="#fff"/>
        <path id="Path_717" data-name="Path 717" d="M314.61,123.139c0-3.718,2.058-5.819,4.828-5.819s4.817,2.155,4.817,5.819-2.037,5.808-4.817,5.808S314.61,126.846,314.61,123.139Zm7.026,0c0-2.554-.894-3.621-2.155-3.621s-2.155,1.078-2.155,3.621.905,3.61,2.155,3.61,2.155-1.056,2.155-3.61Z" transform="translate(-76.873 -35.65)" fill="#fff"/>
        <path id="Path_718" data-name="Path 718" d="M411.3,284h.571a10.859,10.859,0,0,0,10.28-10.291c.065-.981,0-2,0-3.071V169.643c0-1.2,0-2.425-.054-3.61a10.9,10.9,0,0,0-.97-3.47,10.6,10.6,0,0,0-5.075-5.119,10.894,10.894,0,0,0-3.578-1.013c-1.25-.1-2.554,0-3.836,0H114.819a10.83,10.83,0,0,0-5.269,1.379,10.7,10.7,0,0,0-3.879,3.782,10.55,10.55,0,0,0-1.519,5.194v105.28a16.411,16.411,0,0,0,.119,2.532,10.659,10.659,0,0,0,10.313,9.116h29.925l138.869.065,93.621.086,25.453.054h0L377,283.975l-93.621.086-138.89.183H114.55a11.121,11.121,0,0,1-5-1.293,11.347,11.347,0,0,1-3.9-3.427,10.959,10.959,0,0,1-1.929-4.849,15.164,15.164,0,0,1-.129-2.608V166.744a11.067,11.067,0,0,1,1.595-5.453,11.228,11.228,0,0,1,9.634-5.442H408.526c1.293,0,2.565,0,3.869.065a11.229,11.229,0,0,1,8.987,6.369,11.4,11.4,0,0,1,.991,3.6c.1,1.25,0,2.446.054,3.653v46.024c0,15.7,0,29.224-.054,40.28V273.6a11.357,11.357,0,0,1-.517,2.78,10.978,10.978,0,0,1-8.222,7.349,12.263,12.263,0,0,1-1.681.194Z" transform="translate(-83.246 -32.66)" fill="#e0e0e0"/>
        <rect id="Rectangle_18" data-name="Rectangle 18" width="10.345" height="41.067" transform="translate(117.953 203.06)" fill="#ebebeb"/>
        <rect id="Rectangle_19" data-name="Rectangle 19" width="10.345" height="28.642" transform="translate(133.448 215.485)" fill="#ebebeb"/>
        <rect id="Rectangle_20" data-name="Rectangle 20" width="10.345" height="28.642" transform="translate(103.103 215.485)" fill="#ebebeb"/>
        <rect id="Rectangle_21" data-name="Rectangle 21" width="10.345" height="3.815" transform="translate(72.759 240.313)" fill="#ebebeb"/>
        <rect id="Rectangle_22" data-name="Rectangle 22" width="10.345" height="9.569" transform="translate(88.136 234.558)" fill="#ebebeb"/>
        <rect id="Rectangle_23" data-name="Rectangle 23" width="10.345" height="3.179" transform="translate(57.942 240.948)" fill="#ebebeb"/>
        <rect id="Rectangle_24" data-name="Rectangle 24" width="10.345" height="3.179" transform="translate(42.403 240.948)" fill="#ebebeb"/>
        <rect id="Rectangle_25" data-name="Rectangle 25" width="10.345" height="22.877" transform="translate(149.763 221.25)" fill="#ebebeb"/>
        <rect id="Rectangle_26" data-name="Rectangle 26" width="10.345" height="16.595" transform="translate(166.088 227.532)" fill="#ebebeb"/>
        <rect id="Rectangle_27" data-name="Rectangle 27" width="10.345" height="28.642" transform="translate(182.403 215.485)" fill="#ebebeb"/>
        <rect id="Rectangle_28" data-name="Rectangle 28" width="10.345" height="46.53" transform="translate(198.718 197.597)" fill="#ebebeb"/>
        <rect id="Rectangle_29" data-name="Rectangle 29" width="10.345" height="60.302" transform="translate(215.032 183.825)" fill="#ebebeb"/>
        <rect id="Rectangle_30" data-name="Rectangle 30" width="10.345" height="41.067" transform="translate(231.358 203.06)" fill="#ebebeb"/>
        <rect id="Rectangle_31" data-name="Rectangle 31" width="10.345" height="77.931" transform="translate(247.672 166.196)" fill="#ebebeb"/>
        <rect id="Rectangle_32" data-name="Rectangle 32" width="10.345" height="41.067" transform="translate(263.987 203.06)" fill="#ebebeb"/>
        <rect id="Rectangle_33" data-name="Rectangle 33" width="10.345" height="28.642" transform="translate(280.302 215.485)" fill="#ebebeb"/>
        <rect id="Rectangle_34" data-name="Rectangle 34" width="10.345" height="23.265" transform="translate(296.627 220.862)" fill="#ebebeb"/>
        <rect id="Rectangle_35" data-name="Rectangle 35" width="10.345" height="16.595" transform="translate(312.942 227.532)" fill="#ebebeb"/>
        <path id="Path_719" data-name="Path 719" d="M132,273.644h19.4a31.325,31.325,0,0,0,4.31-.226,22.361,22.361,0,0,0,9.159-3.233,17.629,17.629,0,0,0,4.073-3.567,23.029,23.029,0,0,0,2.823-5.043c1.616-3.664,3.082-7.64,4.58-11.853s3-8.621,4.6-13.2c.808-2.3,1.627-4.634,2.575-6.983a40.5,40.5,0,0,1,3.534-6.9,28.362,28.362,0,0,1,5.291-6.2,23.707,23.707,0,0,1,7.144-4.181,25.031,25.031,0,0,1,8.405-1.476,31.175,31.175,0,0,1,8.7,1.078,22.918,22.918,0,0,1,4.181,1.606A21.066,21.066,0,0,1,224.554,216a23.567,23.567,0,0,1,5.614,7.274,55.43,55.43,0,0,1,3.233,8.793c.948,3,1.9,6.024,2.953,9.041A75.947,75.947,0,0,0,244.6,258.7a24.116,24.116,0,0,0,6.875,6.983,13.222,13.222,0,0,0,4.569,1.81,13.491,13.491,0,0,0,2.468.248,16.27,16.27,0,0,0,2.511-.129,16.821,16.821,0,0,0,6.465-1.821,14.925,14.925,0,0,0,4.9-4.526c1.3-1.843,2.392-3.825,3.5-5.776a64.654,64.654,0,0,0,2.974-6c3.534-8.157,5.733-16.659,9.03-24.5a92.552,92.552,0,0,1,5.2-11.444,40.571,40.571,0,0,1,7.414-9.7,25.248,25.248,0,0,1,4.709-3.664,24.784,24.784,0,0,1,5.388-2.392,33.253,33.253,0,0,1,11.239-1.369,35.851,35.851,0,0,1,10.636,2.08,27.585,27.585,0,0,1,8.836,5.312c5.054,4.461,8.718,9.7,12.931,13.836a33.987,33.987,0,0,0,14.009,8.2,58.275,58.275,0,0,0,13.437,2.565h0l18.933.065h0l-18.933.065h0a58.275,58.275,0,0,1-13.535-2.511,34.483,34.483,0,0,1-14.181-8.071c-4.224-4.17-7.909-9.386-12.931-13.782a27.338,27.338,0,0,0-8.718-5.215,34.956,34.956,0,0,0-10.5-2.026,32.726,32.726,0,0,0-11.067,1.358,24.246,24.246,0,0,0-9.86,5.948,40.679,40.679,0,0,0-7.317,9.569,92.569,92.569,0,0,0-5.151,11.39c-3.287,7.823-5.474,16.3-9.03,24.526a64.138,64.138,0,0,1-2.985,6.045,65.2,65.2,0,0,1-3.545,5.83,15.377,15.377,0,0,1-5.086,4.688,17.165,17.165,0,0,1-6.713,1.9c-.851.119-1.713.086-2.565.129a13.826,13.826,0,0,1-2.575-.259,13.685,13.685,0,0,1-4.752-1.886,24.462,24.462,0,0,1-7.047-7.144,76.789,76.789,0,0,1-8.308-17.716c-1.078-3.028-2-6.067-2.942-9.062a55.812,55.812,0,0,0-3.233-8.707,22.877,22.877,0,0,0-5.485-7.112,19.99,19.99,0,0,0-3.675-2.478,22.63,22.63,0,0,0-4.084-1.573,30.429,30.429,0,0,0-8.556-1.078,24.537,24.537,0,0,0-8.233,1.433,25.151,25.151,0,0,0-12.22,10.011c-2.866,4.31-4.45,9.213-6.088,13.772s-3.157,9-4.634,13.2-3,8.168-4.634,11.853a23.631,23.631,0,0,1-2.888,5.108,18.061,18.061,0,0,1-4.17,3.621,22.791,22.791,0,0,1-9.278,3.233,30.453,30.453,0,0,1-4.31.194h-4l-11.465-.054h-2.985C132.291,273.665,132,273.644,132,273.644Z" transform="translate(-81.041 -29.516)" fill="#267fc9"/>
        <path id="Path_720" data-name="Path 720" d="M229.308,179.58h-58.19a1.649,1.649,0,0,0-1.649,1.649v20.011a1.638,1.638,0,0,0,1.649,1.649h29.44a1.638,1.638,0,0,1,1.218.539c.927,1.024,2.155,2.349,3.06,3.319a1.66,1.66,0,0,0,2.435,0l3-3.308a1.638,1.638,0,0,1,1.218-.539h17.823a1.649,1.649,0,0,0,1.649-1.649V181.229a1.66,1.66,0,0,0-1.649-1.649Z" transform="translate(-78.134 -30.819)" fill="#267fc9"/>
        <path id="Path_721" data-name="Path 721" d="M169.342,232.46H120.851a.981.981,0,0,0-.981.981v11.853a.981.981,0,0,0,.981.981h17.478a.959.959,0,0,1,.722.323c.55.6,1.282,1.4,1.821,1.972a.981.981,0,0,0,1.444,0l1.789-1.961a.959.959,0,0,1,.722-.323H169.3a.981.981,0,0,0,.981-.981V233.451a.981.981,0,0,0-.938-.991Z" transform="translate(-81.982 -26.716)" fill="#f5f5f5"/>
        <path id="Path_722" data-name="Path 722" d="M205.556,209.993a2.263,2.263,0,1,1-2.263-2.263,2.263,2.263,0,0,1,2.263,2.263Z" transform="translate(-75.685 -28.635)" fill="#267fc9"/>
        <path id="Path_723" data-name="Path 723" d="M203.3,212.331a2.3,2.3,0,1,1,2.3-2.3A2.3,2.3,0,0,1,203.3,212.331Zm0-4.537a.932.932,0,1,0,0-.043Z" transform="translate(-75.688 -28.634)" fill="#263238"/>
        <path id="Path_725" data-name="Path 725" d="M188.886,187.37V194.3H187.28v-5.647h-1.39V187.37Z" transform="translate(-87.86 -30.215)" fill="#fff"/>
        <path id="Path_726" data-name="Path 726" d="M195.048,192.122c0,1.228-.905,2.3-2.888,2.3a4.806,4.806,0,0,1-2.64-.744l.636-1.228a3.33,3.33,0,0,0,1.972.625c.8,0,1.293-.334,1.293-.905s-.356-.894-1.616-.894h-1.767l.356-3.9h4.224v1.282h-2.888l-.108,1.315h.571C194.229,189.967,195.048,190.894,195.048,192.122Z" transform="translate(-87.578 -30.215)" fill="#fff"/>
        <path id="Path_727" data-name="Path 727" d="M197.138,193.068a2.349,2.349,0,0,1-.269.991l-.571,1.422h-.97l.431-1.573a.862.862,0,0,1-.539-.84.927.927,0,0,1,.97-.948.916.916,0,0,1,.948.948Z" transform="translate(-87.136 -29.846)" fill="#fff"/>
        <path id="Path_728" data-name="Path 728" d="M197.54,190.838c0-2.284,1.261-3.578,2.963-3.578s2.974,1.293,2.974,3.578-1.261,3.588-2.974,3.588S197.54,193.122,197.54,190.838Zm4.31,0c0-1.573-.55-2.22-1.358-2.22s-1.347.647-1.347,2.22.56,2.231,1.347,2.231,1.369-.7,1.369-2.231Z" transform="translate(-86.956 -30.223)" fill="#fff"/>
        <path id="Path_729" data-name="Path 729" d="M203.77,190.838c0-2.284,1.272-3.578,2.974-3.578s2.974,1.293,2.974,3.578-1.261,3.588-2.974,3.588S203.77,193.122,203.77,190.838Zm4.31,0c0-1.573-.56-2.22-1.358-2.22s-1.347.647-1.347,2.22.55,2.231,1.347,2.231,1.379-.7,1.379-2.231Z" transform="translate(-86.473 -30.223)" fill="#fff"/>
        <path id="Path_730" data-name="Path 730" d="M210,190.838c0-2.284,1.261-3.578,2.963-3.578s2.974,1.293,2.974,3.578-1.261,3.588-2.974,3.588S210,193.122,210,190.838Zm4.31,0c0-1.573-.55-2.22-1.358-2.22s-1.347.647-1.347,2.22.56,2.231,1.347,2.231S214.31,192.368,214.31,190.838Z" transform="translate(-85.989 -30.223)" fill="#fff"/>
        <path id="Path_731" data-name="Path 731" d="M91.143,41.53H434.505A6.466,6.466,0,0,1,440.971,48v13.61H84.71V47.963A6.466,6.466,0,0,1,91.143,41.53Z" transform="translate(-84.71 -41.53)" fill="#263238"/>
        <circle id="Ellipse_4" data-name="Ellipse 4" cx="2.866" cy="2.866" r="2.866" transform="translate(10.043 7.446)" fill="#f5f5f5"/>
        <circle id="Ellipse_5" data-name="Ellipse 5" cx="2.866" cy="2.866" r="2.866" transform="translate(18.976 7.446)" fill="#f5f5f5"/>
        <circle id="Ellipse_6" data-name="Ellipse 6" cx="2.866" cy="2.866" r="2.866" transform="translate(27.909 7.446)" fill="#f5f5f5"/>
        <path id="Path_834" data-name="Path 834" d="M4.32-2.729H1.74V0H.672V-6.4h4.1v.857H1.74v1.956H4.32ZM7.392-.76a.887.887,0,0,0,.617-.229.748.748,0,0,0,.253-.58h.967l.009.026a1.434,1.434,0,0,1-.53,1.151A1.92,1.92,0,0,1,7.392.092,1.937,1.937,0,0,1,5.805-.587,2.606,2.606,0,0,1,5.247-2.3v-.154a2.608,2.608,0,0,1,.558-1.709,1.929,1.929,0,0,1,1.582-.681,1.865,1.865,0,0,1,1.349.5,1.628,1.628,0,0,1,.5,1.268l-.009.026H8.262a.965.965,0,0,0-.242-.664.806.806,0,0,0-.633-.272.871.871,0,0,0-.822.442,2.186,2.186,0,0,0-.25,1.092V-2.3a2.206,2.206,0,0,0,.248,1.1A.876.876,0,0,0,7.392-.76ZM10.481,0V-3.964H9.756v-.791h.725v-.554a1.636,1.636,0,0,1,.428-1.213,1.63,1.63,0,0,1,1.2-.426,2.064,2.064,0,0,1,.312.024q.158.024.356.068l-.11.826q-.088-.018-.2-.031a1.9,1.9,0,0,0-.231-.013.656.656,0,0,0-.521.2.833.833,0,0,0-.174.567v.554h.883v.791h-.883V0Zm5.563,0q-.057-.18-.094-.352A2.513,2.513,0,0,1,15.9-.694a1.831,1.831,0,0,1-.576.56,1.481,1.481,0,0,1-.8.226,1.581,1.581,0,0,1-1.14-.382,1.388,1.388,0,0,1-.4-1.05,1.241,1.241,0,0,1,.545-1.074A2.631,2.631,0,0,1,15.06-2.8h.831v-.417a.776.776,0,0,0-.218-.584.87.87,0,0,0-.631-.211.9.9,0,0,0-.58.174.552.552,0,0,0-.215.45l-1.028,0,0-.026a1.178,1.178,0,0,1,.5-1,2.132,2.132,0,0,1,1.391-.435,2.034,2.034,0,0,1,1.34.422,1.485,1.485,0,0,1,.51,1.213v2.114A3.9,3.9,0,0,0,17-.53a3,3,0,0,0,.127.53ZM14.739-.765a1.335,1.335,0,0,0,.723-.2,1.018,1.018,0,0,0,.428-.461v-.7h-.848a1.071,1.071,0,0,0-.729.231.7.7,0,0,0-.264.543.554.554,0,0,0,.178.433A.74.74,0,0,0,14.739-.765Z" transform="translate(251.114 93.12)" fill="#fff"/>
        <path id="Path_835" data-name="Path 835" d="M3.36-2.123H1.354V0H.523V-4.977H3.708v.667H1.354v1.521H3.36ZM5.749-.591a.69.69,0,0,0,.48-.178.582.582,0,0,0,.2-.451h.752l.007.021a1.115,1.115,0,0,1-.412.9A1.493,1.493,0,0,1,5.749.072,1.507,1.507,0,0,1,4.515-.456a2.027,2.027,0,0,1-.434-1.331v-.12a2.029,2.029,0,0,1,.434-1.33,1.5,1.5,0,0,1,1.23-.53,1.451,1.451,0,0,1,1.049.388,1.266,1.266,0,0,1,.39.986l-.007.021H6.426a.75.75,0,0,0-.188-.516A.627.627,0,0,0,5.746-3.1a.678.678,0,0,0-.639.344,1.7,1.7,0,0,0-.195.849v.12A1.716,1.716,0,0,0,5.1-.931.681.681,0,0,0,5.749-.591ZM8.152,0V-3.083H7.588V-3.7h.564v-.431a1.272,1.272,0,0,1,.333-.943A1.268,1.268,0,0,1,9.42-5.4a1.605,1.605,0,0,1,.243.019q.123.019.277.053l-.085.643Q9.786-4.7,9.7-4.713a1.479,1.479,0,0,0-.179-.01.51.51,0,0,0-.405.154.648.648,0,0,0-.135.441V-3.7h.687v.615H8.982V0Zm4.327,0q-.044-.14-.073-.273a1.955,1.955,0,0,1-.039-.267,1.424,1.424,0,0,1-.448.436,1.152,1.152,0,0,1-.625.176,1.229,1.229,0,0,1-.887-.3,1.08,1.08,0,0,1-.309-.817.965.965,0,0,1,.424-.836,2.046,2.046,0,0,1,1.193-.3h.646V-2.5a.6.6,0,0,0-.169-.455.677.677,0,0,0-.49-.164.7.7,0,0,0-.451.135.429.429,0,0,0-.167.35l-.8,0,0-.021a.916.916,0,0,1,.391-.776,1.658,1.658,0,0,1,1.082-.338,1.582,1.582,0,0,1,1.042.328,1.155,1.155,0,0,1,.4.943V-.851a3.032,3.032,0,0,0,.031.439,2.332,2.332,0,0,0,.1.412ZM11.464-.595a1.038,1.038,0,0,0,.562-.157.792.792,0,0,0,.333-.359v-.547H11.7a.833.833,0,0,0-.567.179.545.545,0,0,0-.205.422.431.431,0,0,0,.138.337A.575.575,0,0,0,11.464-.595Z" transform="translate(133.114 163.12)" fill="#fff"/>
        <path id="Path_833" data-name="Path 833" d="M1.434-2.465V0H.664V-5.684H2.609a2.16,2.16,0,0,1,1.426.414,1.484,1.484,0,0,1,.492,1.2A1.288,1.288,0,0,1,4.3-3.3a1.548,1.548,0,0,1-.666.516,1.166,1.166,0,0,1,.674.494,1.618,1.618,0,0,1,.205.846v.535a1.782,1.782,0,0,0,.059.477.715.715,0,0,0,.2.344V0H3.98a.637.637,0,0,1-.2-.391,3.227,3.227,0,0,1-.043-.531v-.52a1.028,1.028,0,0,0-.27-.742.954.954,0,0,0-.723-.281Zm0-.605h1.1a1.429,1.429,0,0,0,.939-.248.945.945,0,0,0,.287-.756.974.974,0,0,0-.279-.744,1.231,1.231,0,0,0-.869-.264H1.434ZM7.4.082A1.788,1.788,0,0,1,5.979-.5a2.24,2.24,0,0,1-.51-1.531V-2.2a2.193,2.193,0,0,1,.525-1.506,1.648,1.648,0,0,1,1.283-.6,1.534,1.534,0,0,1,1.271.527,2.173,2.173,0,0,1,.424,1.4v.406H6.27l-.012.02A1.747,1.747,0,0,0,6.539-.916a.983.983,0,0,0,.859.4,1.936,1.936,0,0,0,.686-.111A1.53,1.53,0,0,0,8.59-.937l.3.5a1.85,1.85,0,0,1-.6.369A2.381,2.381,0,0,1,7.4.082ZM7.277-3.7a.837.837,0,0,0-.666.311,1.469,1.469,0,0,0-.322.795l.008.02H8.2v-.062A1.231,1.231,0,0,0,7.977-3.4.819.819,0,0,0,7.277-3.7ZM11.2-1.246l.066.3h.023l.074-.3.973-2.98h.785L11.563,0H10.98L9.406-4.227H10.2ZM15.508.082A1.788,1.788,0,0,1,14.088-.5a2.24,2.24,0,0,1-.51-1.531V-2.2A2.193,2.193,0,0,1,14.1-3.709a1.648,1.648,0,0,1,1.283-.6,1.534,1.534,0,0,1,1.271.527,2.173,2.173,0,0,1,.424,1.4v.406h-2.7l-.012.02a1.747,1.747,0,0,0,.281,1.033.983.983,0,0,0,.859.4,1.936,1.936,0,0,0,.686-.111A1.53,1.53,0,0,0,16.7-.937l.3.5a1.85,1.85,0,0,1-.6.369A2.381,2.381,0,0,1,15.508.082ZM15.387-3.7a.837.837,0,0,0-.666.311,1.469,1.469,0,0,0-.322.795l.008.02h1.906v-.062a1.231,1.231,0,0,0-.227-.762A.819.819,0,0,0,15.387-3.7Zm3.246-.527.055.629a1.535,1.535,0,0,1,.529-.521,1.412,1.412,0,0,1,.725-.186A1.38,1.38,0,0,1,21-3.9a1.758,1.758,0,0,1,.375,1.236V0h-.77V-2.652a1.143,1.143,0,0,0-.221-.793.884.884,0,0,0-.674-.234,1.193,1.193,0,0,0-.6.143,1.036,1.036,0,0,0-.393.4V0h-.77V-4.227Zm6.543,3.6a1.432,1.432,0,0,1-.512.523,1.4,1.4,0,0,1-.723.184,1.358,1.358,0,0,1-1.078-.441,2.049,2.049,0,0,1-.387-1.375V-4.227h.77v2.5a1.574,1.574,0,0,0,.2.93.741.741,0,0,0,.621.254,1.266,1.266,0,0,0,.678-.166,1.039,1.039,0,0,0,.4-.471V-4.227h.77V0h-.691Zm3.613.707A1.788,1.788,0,0,1,27.369-.5a2.24,2.24,0,0,1-.51-1.531V-2.2a2.193,2.193,0,0,1,.525-1.506,1.648,1.648,0,0,1,1.283-.6,1.534,1.534,0,0,1,1.271.527,2.173,2.173,0,0,1,.424,1.4v.406h-2.7l-.012.02A1.747,1.747,0,0,0,27.93-.916a.983.983,0,0,0,.859.4,1.936,1.936,0,0,0,.686-.111,1.53,1.53,0,0,0,.506-.307l.3.5a1.85,1.85,0,0,1-.6.369A2.381,2.381,0,0,1,28.789.082ZM28.668-3.7A.837.837,0,0,0,28-3.389a1.469,1.469,0,0,0-.322.795l.008.02h1.906v-.062a1.231,1.231,0,0,0-.227-.762A.819.819,0,0,0,28.668-3.7Zm5.617-1.547v1.02h.8v.57h-.8V-1.09a.575.575,0,0,0,.123.418.445.445,0,0,0,.326.121.715.715,0,0,0,.148-.018,1.1,1.1,0,0,0,.137-.037l.105.527a.68.68,0,0,1-.254.115,1.281,1.281,0,0,1-.332.045A1,1,0,0,1,33.793-.2a1.23,1.23,0,0,1-.277-.889V-3.656h-.672v-.57h.672v-1.02ZM35.73-2.152A2.327,2.327,0,0,1,36.238-3.7,1.7,1.7,0,0,1,37.617-4.3a1.72,1.72,0,0,1,1.389.605,2.319,2.319,0,0,1,.51,1.547v.086A2.316,2.316,0,0,1,39.008-.52a1.714,1.714,0,0,1-1.383.6,1.718,1.718,0,0,1-1.385-.6,2.312,2.312,0,0,1-.51-1.545Zm.77.086a2,2,0,0,0,.283,1.109.937.937,0,0,0,.842.438.935.935,0,0,0,.836-.437,1.994,1.994,0,0,0,.285-1.109v-.086a1.988,1.988,0,0,0-.287-1.105.941.941,0,0,0-.842-.441.928.928,0,0,0-.834.441A2.009,2.009,0,0,0,36.5-2.152Zm5.027-3.18v1.02h.8v.57h-.8V-1.09a.575.575,0,0,0,.123.418.445.445,0,0,0,.326.121.715.715,0,0,0,.148-.018,1.1,1.1,0,0,0,.137-.037l.105.527a.68.68,0,0,1-.254.115,1.281,1.281,0,0,1-.332.045A1,1,0,0,1,41.035-.2a1.23,1.23,0,0,1-.277-.889V-3.656h-.672v-.57h.672v-1.02ZM45.75,0q-.039-.191-.061-.338a2.48,2.48,0,0,1-.025-.295,1.794,1.794,0,0,1-.561.51,1.434,1.434,0,0,1-.744.205,1.382,1.382,0,0,1-1.006-.338,1.243,1.243,0,0,1-.346-.932,1.092,1.092,0,0,1,.49-.947,2.29,2.29,0,0,1,1.33-.342h.836v-.418a.775.775,0,0,0-.227-.588A.89.89,0,0,0,44.8-3.7a.93.93,0,0,0-.605.188.563.563,0,0,0-.23.449l-.73.008-.008-.023a1.012,1.012,0,0,1,.432-.844A1.789,1.789,0,0,1,44.84-4.3,1.745,1.745,0,0,1,46-3.939a1.294,1.294,0,0,1,.438,1.053V-.852a3.961,3.961,0,0,0,.023.438A2.25,2.25,0,0,0,46.543,0ZM44.473-.562a1.37,1.37,0,0,0,.754-.215,1.021,1.021,0,0,0,.438-.492v-.687H44.8a1.12,1.12,0,0,0-.744.234.7.7,0,0,0-.279.551.58.58,0,0,0,.176.445A.736.736,0,0,0,44.473-.562ZM48.383,0h-.77V-6.094h.77Z" transform="translate(195.114 76.12)" fill="#fff"/>
      </g>
      <g id="freepik--Character--inject-2" transform="translate(196.815 206.509)">
        <path id="Path_732" data-name="Path 732" d="M458.787,467.413a20.851,20.851,0,0,0,20.625-16.81c3.427-17.392,7.834-41.724,7.974-69.052.086-16.756-3.664-37.974-8.847-53.879-7.543-23.276-23.772-43.782-47.306-50.5-30.571-8.728-41.638-5.388-63.319,5.991-23.578,12.36-29.957,35.56-54.5,45.884-23.825,10.011-52.565,6.595-74.289,20.6-19.106,12.328-28.427,36-29.181,58.728a126.217,126.217,0,0,0,3.481,35.916c2.963,12.4,14.16,23.039,26.94,23.147Z" transform="translate(-181.934 -188.609)" fill="#267fc9"/>
        <g id="Group_32" data-name="Group 32" transform="translate(27.868 83.622)" opacity="0.4">
          <path id="Path_733" data-name="Path 733" d="M458.787,467.413a20.851,20.851,0,0,0,20.625-16.81c3.427-17.392,7.834-41.724,7.974-69.052.086-16.756-3.664-37.974-8.847-53.879-7.543-23.276-23.772-43.782-47.306-50.5-30.571-8.728-41.638-5.388-63.319,5.991-23.578,12.36-29.957,35.56-54.5,45.884-23.825,10.011-52.565,6.595-74.289,20.6-19.106,12.328-28.427,36-29.181,58.728a126.217,126.217,0,0,0,3.481,35.916c2.963,12.4,14.16,23.039,26.94,23.147Z" transform="translate(-209.802 -272.231)"/>
        </g>
        <path id="Path_734" data-name="Path 734" d="M426.28,280.64a2.9,2.9,0,0,1,.226.431c.151.323.356.754.625,1.3.55,1.185,1.325,2.877,2.328,5.032l1.67,3.642c.6,1.347,1.078,2.845,1.756,4.44s1.272,3.308,1.972,5.108,1.347,3.761,2,5.808,1.336,4.213,2.047,6.466c.388,1.078.679,2.284.981,3.47s.614,2.381.927,3.61l.959,3.75c.162.625.334,1.272.5,1.907s.269,1.315.4,1.972c.539,2.651,1.078,5.388,1.638,8.168a260.9,260.9,0,0,1,3.782,36.875,310.765,310.765,0,0,1-1.465,37.015c-.679,5.657-1.228,11.045-2.155,16.034-.4,2.5-.733,4.925-1.153,7.231s-.873,4.526-1.282,6.638c-.765,4.246-1.7,8.028-2.457,11.358-.388,1.67-.744,3.233-1.078,4.644l-1.078,3.879c-.625,2.3-1.078,4.095-1.444,5.388l-.4,1.39a2.081,2.081,0,0,1-.151.463,2.876,2.876,0,0,1,.1-.485c.075-.345.194-.808.334-1.4.313-1.261.754-3.071,1.325-5.388.291-1.164.625-2.468.981-3.879s.657-2.985,1.078-4.655c.722-3.341,1.627-7.123,2.36-11.369q.6-3.168,1.25-6.627c.4-2.317.722-4.741,1.078-7.231.841-4.989,1.368-10.377,2.037-16.013a314.955,314.955,0,0,0,1.4-36.951,263.562,263.562,0,0,0-3.718-36.756q-.808-4.192-1.606-8.147l-.388-1.961-.485-1.918c-.323-1.261-.636-2.511-.948-3.739s-.614-2.425-.905-3.61-.582-2.349-.959-3.459l-2.015-6.466c-.625-2.047-1.218-4.009-1.95-5.808s-1.325-3.524-1.918-5.119-1.131-3.1-1.7-4.45l-1.562-3.739c-.948-2.155-1.692-3.879-2.22-5.075l-.56-1.325A2.094,2.094,0,0,1,426.28,280.64Z" transform="translate(-165.138 -187.957)" fill="#263238"/>
        <path id="Path_735" data-name="Path 735" d="M244.2,454.1,223.811,486.03,183.94,460.857c2.64-3.653,28.082,1.724,28.082,1.724l12.231-20.991Z" transform="translate(-183.94 -175.469)" fill="#455a64"/>
        <g id="Group_33" data-name="Group 33" transform="translate(38.431 292.622)" opacity="0.6">
          <path id="Path_736" data-name="Path 736" d="M222.692,466.729a1.929,1.929,0,0,1-.054,2.565,1.843,1.843,0,0,1-2.543,0,2.037,2.037,0,0,1,.065-2.726,1.918,1.918,0,0,1,2.64.323" transform="translate(-219.604 -466.183)" fill="#fff"/>
        </g>
        <g id="Group_34" data-name="Group 34" transform="translate(0.022 284.327)" opacity="0.6">
          <path id="Path_737" data-name="Path 737" d="M223.809,484.719l1.929-3.3-38.922-22.9s-2.263-.345-2.856,1.078Z" transform="translate(-183.96 -458.486)" fill="#fff"/>
        </g>
        <path id="Path_738" data-name="Path 738" d="M209.541,460.5c-.119.2.8.905,1.358,2.155s.56,2.371.787,2.4.647-1.272-.054-2.748S209.605,460.3,209.541,460.5Z" transform="translate(-181.955 -174.005)" fill="#263238"/>
        <path id="Path_739" data-name="Path 739" d="M204.652,459.662c-.162.162.463,1.024.6,2.263s-.216,2.231,0,2.338,1.013-.905.808-2.446S204.77,459.479,204.652,459.662Z" transform="translate(-182.335 -174.069)" fill="#263238"/>
        <path id="Path_740" data-name="Path 740" d="M199.513,463.22c.151.151,1.078-.647,1.207-2.037s-.463-2.381-.647-2.263,0,1.078-.14,2.155S199.33,463.08,199.513,463.22Z" transform="translate(-182.735 -174.126)" fill="#263238"/>
        <path id="Path_741" data-name="Path 741" d="M212.62,456.358c0,.226,1.024.528,2.08,1.293s1.692,1.659,1.9,1.552-.172-1.315-1.433-2.155S212.62,456.142,212.62,456.358Z" transform="translate(-181.715 -174.332)" fill="#263238"/>
        <path id="Path_742" data-name="Path 742" d="M216.27,452.579c-.054.075.636.679,2,1.25a10.467,10.467,0,0,0,2.489.679,11.624,11.624,0,0,0,1.53.108,2.716,2.716,0,0,0,.894-.086,1,1,0,0,0,.744-.981,1.25,1.25,0,0,0-.571-.981,3.1,3.1,0,0,0-.808-.366,8.4,8.4,0,0,0-4.116-.313,3.977,3.977,0,0,0-2.155.873c0,.129.884-.2,2.274-.312a9.48,9.48,0,0,1,2.414.118,8.686,8.686,0,0,1,1.369.377c.5.151.851.377.841.636s0,.129-.183.194a2.819,2.819,0,0,1-.657.065,10.322,10.322,0,0,1-1.433-.065,12.934,12.934,0,0,1-2.4-.485,16.007,16.007,0,0,0-2.231-.711Z" transform="translate(-181.432 -174.68)" fill="#263238"/>
        <path id="Path_743" data-name="Path 743" d="M216.392,453.468a4.219,4.219,0,0,0,1.746-1.595,7.758,7.758,0,0,0,1.078-2.36,8.394,8.394,0,0,0,.259-1.53,1.961,1.961,0,0,0-.647-1.81,1.078,1.078,0,0,0-1.185,0,3.309,3.309,0,0,0-.657.6,5.452,5.452,0,0,0-1.3,3.944c.129,1.53.787,2.274.851,2.22a22.136,22.136,0,0,1-.291-2.231,5.387,5.387,0,0,1,.56-2.274,4.558,4.558,0,0,1,.765-1.078c.323-.388.7-.625.83-.485a1.741,1.741,0,0,1,.291,1.078,7.21,7.21,0,0,1-.194,1.39,8.234,8.234,0,0,1-.873,2.231C216.974,452.768,216.306,453.371,216.392,453.468Z" transform="translate(-181.478 -175.128)" fill="#263238"/>
        <path id="Path_744" data-name="Path 744" d="M270.427,361.536l-12.209,35.83L213.53,382.4c1.692-4.181,27.683-5.011,27.683-5.011l6.875-23.3Z" transform="translate(-181.644 -182.258)" fill="#455a64"/>
        <g id="Group_35" data-name="Group 35" transform="translate(71.267 197.541)" opacity="0.6">
          <path id="Path_745" data-name="Path 745" d="M252.839,378.23a1.929,1.929,0,0,1,.571,2.5,1.843,1.843,0,0,1-2.478.582,2.026,2.026,0,0,1-.593-2.651,1.918,1.918,0,0,1,2.651-.323" transform="translate(-250.076 -377.948)" fill="#fff"/>
        </g>
        <g id="Group_36" data-name="Group 36" transform="translate(31.886 198.459)" opacity="0.6">
          <path id="Path_746" data-name="Path 746" d="M258.218,395.449l1.078-3.664L216.052,378.8s-2.284.194-2.522,1.681Z" transform="translate(-213.53 -378.8)" fill="#fff"/>
        </g>
        <path id="Path_747" data-name="Path 747" d="M238.61,375.276c-.065.226,1,.69,1.832,1.746s1.078,2.155,1.336,2.155.323-1.39-.711-2.662S238.632,375.06,238.61,375.276Z" transform="translate(-179.699 -180.62)" fill="#263238"/>
        <path id="Path_748" data-name="Path 748" d="M233.661,375.613c-.119.194.7.884,1.131,2.058s.323,2.22.539,2.284.776-1.131.215-2.575S233.736,375.408,233.661,375.613Z" transform="translate(-180.083 -180.592)" fill="#263238"/>
        <path id="Path_749" data-name="Path 749" d="M229.486,380.311c.183.119.851-.873.69-2.252S229.1,375.9,229,376s.269,1,.377,2.155S229.271,380.214,229.486,380.311Z" transform="translate(-180.445 -180.559)" fill="#263238"/>
        <path id="Path_750" data-name="Path 750" d="M240.62,370.531c0,.226,1.078.259,2.328.754s2.037,1.207,2.209,1.078-.485-1.239-1.907-1.81S240.566,370.316,240.62,370.531Z" transform="translate(-179.543 -181.005)" fill="#263238"/>
        <path id="Path_751" data-name="Path 751" d="M243.25,366.053a4.515,4.515,0,0,0,2.241.733,10.073,10.073,0,0,0,2.586.065,11.266,11.266,0,0,0,1.509-.248,2.954,2.954,0,0,0,.862-.3,1,1,0,0,0,.485-1.078,1.325,1.325,0,0,0-.787-.819,3.233,3.233,0,0,0-.884-.162,9.3,9.3,0,0,0-1.552,0,8.407,8.407,0,0,0-2.511.668c-1.358.614-1.994,1.3-1.929,1.379s.808-.409,2.155-.851a9.937,9.937,0,0,1,2.371-.463,8.949,8.949,0,0,1,1.412,0c.517,0,.927.162.97.409s0,.129-.129.237a2.337,2.337,0,0,1-.625.215,12.07,12.07,0,0,1-1.412.28,13,13,0,0,1-2.435.108,15.555,15.555,0,0,0-2.328-.172Z" transform="translate(-179.338 -181.473)" fill="#263238"/>
        <path id="Path_752" data-name="Path 752" d="M243.536,366.857c.065.054.765-.582,1.315-1.972a7.758,7.758,0,0,0,.517-2.554,7.659,7.659,0,0,0-.119-1.541,1.972,1.972,0,0,0-1.078-1.616,1.078,1.078,0,0,0-1.142.313,3.5,3.5,0,0,0-.506.744,5.2,5.2,0,0,0-.506,1.509,5.323,5.323,0,0,0,.183,2.629c.485,1.455,1.3,2.015,1.347,1.95a19.668,19.668,0,0,1-.808-2.091,5.549,5.549,0,0,1,0-2.349,4.936,4.936,0,0,1,.474-1.271c.226-.453.539-.776.7-.668a1.736,1.736,0,0,1,.539.991,7.909,7.909,0,0,1,.14,1.4,8.621,8.621,0,0,1-.313,2.381C243.934,366.038,243.428,366.782,243.536,366.857Z" transform="translate(-179.441 -181.868)" fill="#263238"/>
        <path id="Path_753" data-name="Path 753" d="M342.385,357.317s-33.631-53.976-42.856-68.966c-10.69-17.317-32.608-15.086-37.866.517,1.175-3.513-4.095,11.961-21.843,69.752l29.9,8.556,19.235-16.336,7.629,21.821Z" transform="translate(-179.605 -188.298)" fill="#263238"/>
        <path id="Path_754" data-name="Path 754" d="M335.042,295.67,322.8,337.545,277.51,342.4v8.039l66.552.916,9.063-54.526Z" transform="translate(-176.68 -186.791)" fill="#a87f69"/>
        <path id="Path_755" data-name="Path 755" d="M350.788,348.86H288.967A34.022,34.022,0,0,0,263.5,360.318a22.791,22.791,0,0,0-4.652,8.477l-45.259,84.44L242.5,469.2l54.052-77.091,30.172.366,67.263-41.994Z" transform="translate(-181.64 -182.664)" fill="#263238"/>
        <path id="Path_756" data-name="Path 756" d="M283.941,373.68a9.526,9.526,0,0,1,1.595,2.1,34.669,34.669,0,0,1,2.9,5.679,35.557,35.557,0,0,1,1.81,6.1,10.087,10.087,0,0,1,.3,2.618c-.183,0-.787-3.944-2.64-8.513S283.79,373.777,283.941,373.68Z" transform="translate(-176.182 -180.738)" fill="#455a64"/>
        <path id="Path_757" data-name="Path 757" d="M224.691,303.205l25.14,49.483h79.375l-3.233-6.466-23-.69-18.664-41.7a7.252,7.252,0,0,0-6.616-4.31H226.943a2.522,2.522,0,0,0-2.252,3.685Z" transform="translate(-180.8 -186.492)" fill="#e0e0e0"/>
        <path id="Path_758" data-name="Path 758" d="M262.826,323.493a3.233,3.233,0,1,1-3.233-3.233A3.233,3.233,0,0,1,262.826,323.493Z" transform="translate(-178.321 -184.883)" fill="#263238"/>
        <path id="Path_759" data-name="Path 759" d="M418.079,271.388c-2.64-11.95-20.474-16.487-28.513-16.509-11.218,0-10.2-.711-21.228,1.272h-1.455c-33.513-1.358-37.371,44.677-37.371,44.677l15.28,1.239h0l-4.041,31.713L329.06,356.226l64.364-.1,3.6-52.4,26.94-.711S420.752,283.467,418.079,271.388Z" transform="translate(-172.681 -189.965)" fill="#267fc9"/>
        <path id="Path_760" data-name="Path 760" d="M345.79,279.42c.172,0-.959,11.2-2.532,24.968s-2.974,24.9-3.147,24.892.959-11.2,2.532-24.968S345.618,279.4,345.79,279.42Z" transform="translate(-171.825 -188.052)" fill="#263238"/>
        <g id="Group_37" data-name="Group 37" transform="translate(189.763 91.325)" opacity="0.2">
          <path id="Path_761" data-name="Path 761" d="M393.4,279.423c-2.748,13.125-6.325,26.606-9.062,39.731-.593,2.791-1.218,5.679-2.92,7.953a18.6,18.6,0,0,1-3.912,3.61c-5.388,4.052-11.11,7.856-17.468,10.172a157.064,157.064,0,0,0,27.188-4.731A7.414,7.414,0,0,0,391.312,334a7.544,7.544,0,0,0,1.229-3.9c1.972-16.821,1.4-33.782.862-50.722" transform="translate(-360.04 -279.38)"/>
        </g>
        <path id="Path_762" data-name="Path 762" d="M309,336.238l19.935-2.392L343,343.059,396.828,330.2l1.573-30,24.138-.6-.571,35.216a20.474,20.474,0,0,1-20.991,20l-78.75-2.155-3.351-6.7L302,345.4Z" transform="translate(-174.78 -186.486)" fill="#a87f69"/>
        <path id="Path_763" data-name="Path 763" d="M396.825,328a6.741,6.741,0,0,1-1.013.312l-2.92.754-10.776,2.694-35.647,8.621-3.319.787h-.129l-.118-.075-14.009-9.235h.183l-19.957,2.306.129-.075-5.269,6.692-1.422,1.767a3.592,3.592,0,0,1-.528.582,4.745,4.745,0,0,1,.442-.647l1.336-1.832,5.129-6.8.054-.065h.075l19.871-2.435h.194l14.073,9.2h-.248l3.319-.8,35.7-8.459,10.83-2.5,2.953-.647A6.562,6.562,0,0,1,396.825,328Z" transform="translate(-174.778 -184.282)" fill="#9f7158"/>
        <path id="Path_764" data-name="Path 764" d="M320.257,338.934a48.339,48.339,0,0,1-7.748.312h-1.422l.2-.075a37.935,37.935,0,0,1-5.022,3.869,35.87,35.87,0,0,1,4.623-4.31l.086-.075h1.53A48.321,48.321,0,0,1,320.257,338.934Z" transform="translate(-174.449 -183.46)" fill="#9d735e"/>
        <path id="Path_765" data-name="Path 765" d="M399.36,333.066a14.416,14.416,0,0,0-3.922-4.095c-2.672-1.724-5.388-1.562-5.388-1.756a3.233,3.233,0,0,1,1.735-.14,9.246,9.246,0,0,1,6.94,4.364,3.319,3.319,0,0,1,.636,1.627Z" transform="translate(-167.949 -184.359)" fill="#9d735e"/>
        <path id="Path_766" data-name="Path 766" d="M419.168,301.5h0l-5.873.216c-4.957.151-11.853.323-19.4.474l-2.425.054h-.312v-.3c-.269-7.026-.151-13.287,0-17.78.065-2.252.151-4.052.226-5.3a11.184,11.184,0,0,1,.183-1.929,12.4,12.4,0,0,1,.054,1.94c0,1.347,0,3.125,0,5.3,0,4.494-.075,10.776.216,17.737l-.323-.291h2.435c7.543-.151,14.44-.248,19.4-.291h5.884C420.558,301.262,417.013,301.413,419.168,301.5Z" transform="translate(-167.875 -188.245)" fill="#263238"/>
        <path id="Path_767" data-name="Path 767" d="M381.031,299.9a10.71,10.71,0,0,1-.776,1.552c-.259.5-.582,1.078-1.013,1.756s-.873,1.455-1.455,2.263a56.762,56.762,0,0,1-4.31,5.517,62.826,62.826,0,0,1-6.153,5.981,63.911,63.911,0,0,1-6.972,5,55.964,55.964,0,0,1-6.2,3.233c-.905.431-1.756.744-2.489,1.078a14.72,14.72,0,0,1-1.907.69,8.563,8.563,0,0,1-1.659.485,10.772,10.772,0,0,1,1.584-.69c.517-.194,1.153-.442,1.864-.765s1.552-.657,2.435-1.078a62.676,62.676,0,0,0,6.088-3.341A60.682,60.682,0,0,0,373.089,310.7a64.1,64.1,0,0,0,4.375-5.388c.593-.8,1.078-1.552,1.519-2.209s.8-1.218,1.078-1.692a10.649,10.649,0,0,1,.97-1.509Z" transform="translate(-171.203 -186.463)" fill="#263238"/>
        <path id="Path_768" data-name="Path 768" d="M416.133,268.22a4.045,4.045,0,0,1-.787,0l-2.252-.075-8.265-.323c-6.983-.237-16.627-.42-27.274-.28s-20.291.614-27.263,1.078l-8.254.539-2.241.14a4.314,4.314,0,0,1-.787,0,3.232,3.232,0,0,1,.776-.119l2.231-.248c1.95-.2,4.763-.453,8.244-.722,6.972-.539,16.616-1.078,27.284-1.207s20.323.108,27.306.453c3.481.162,6.3.334,8.254.485l2.241.183A4.2,4.2,0,0,1,416.133,268.22Z" transform="translate(-171.909 -189.018)" fill="#fafafa"/>
        <path id="Path_769" data-name="Path 769" d="M345.138,288.49a89.321,89.321,0,0,1-14.138,0,89.314,89.314,0,0,1,14.138,0Z" transform="translate(-172.53 -187.37)" fill="#fafafa"/>
        <path id="Path_770" data-name="Path 770" d="M394.514,290.731a1.661,1.661,0,0,1-.5.108l-1.455.216c-1.261.172-3.082.388-5.388.625-4.526.463-10.776.97-17.737,1.239s-13.222.259-17.769.14c-2.274-.054-4.116-.129-5.388-.2l-1.455-.1a1.746,1.746,0,0,1-.506-.075,1.691,1.691,0,0,1,.506,0h6.853c4.547,0,10.83,0,17.748-.3s13.19-.711,17.716-1.078l5.388-.442,1.466-.108a1.509,1.509,0,0,1,.517-.022Z" transform="translate(-171.497 -187.175)" fill="#fafafa"/>
        <path id="Path_771" data-name="Path 771" d="M416.855,286.642c0,.151-5.733.8-12.834,1.433s-12.866,1.013-12.931.862,5.733-.8,12.834-1.422S416.79,286.491,416.855,286.642Z" transform="translate(-167.868 -187.494)" fill="#fafafa"/>
        <path id="Path_772" data-name="Path 772" d="M364.757,317.124a18.153,18.153,0,0,1-3.384.269c-2.1.086-5,.129-8.211.054s-6.1-.259-8.19-.442a19.041,19.041,0,0,1-3.373-.431,21.393,21.393,0,0,1,3.394,0c2.1.086,4.989.194,8.19.269s6.088.108,8.179.129A21.935,21.935,0,0,1,364.757,317.124Z" transform="translate(-171.708 -185.174)" fill="#fafafa"/>
        <path id="Path_773" data-name="Path 773" d="M392.828,317.941a5.386,5.386,0,0,1-1.218.259c-.787.14-1.929.3-3.351.485-2.834.345-6.778.711-11.142.884s-8.319.108-11.175,0c-1.433-.065-2.586-.14-3.384-.216a4.907,4.907,0,0,1-1.228-.172,5.576,5.576,0,0,1,1.239,0h3.384c2.856,0,6.8,0,11.142-.14s8.276-.474,11.121-.722l3.373-.3a4.922,4.922,0,0,1,1.239-.076Z" transform="translate(-170.177 -185.064)" fill="#fafafa"/>
        <path id="Path_774" data-name="Path 774" d="M347.972,337.385a15.279,15.279,0,0,1-5.506-1.379,15.539,15.539,0,0,1-4.935-2.845c.1-.14,2.263,1.175,5.14,2.328S348,337.223,347.972,337.385Z" transform="translate(-172.024 -183.883)" fill="#fafafa"/>
        <path id="Path_775" data-name="Path 775" d="M373.746,200.78h-1.078A19.558,19.558,0,0,0,353.1,218.517c-.754,9.3-1.455,19.58-1.379,24.569C351.871,253.42,362.5,255,362.5,255l-.4,9.17a12.651,12.651,0,0,0,11.853,13.05h0A12.629,12.629,0,0,0,387.3,265.209l2.155-43.631C390.417,210.845,384.781,201.383,373.746,200.78Z" transform="translate(-170.923 -194.153)" fill="#a87f69"/>
        <path id="Path_776" data-name="Path 776" d="M361.59,251.367a26.239,26.239,0,0,0,13.89-3.987s-3.233,7.446-13.847,6.53Z" transform="translate(-170.157 -190.537)" fill="#9d735e"/>
        <path id="Path_777" data-name="Path 777" d="M356.45,223.283a1.5,1.5,0,0,0,1.466,1.487,1.444,1.444,0,0,0,1.562-1.336A1.509,1.509,0,0,0,358.013,222a1.444,1.444,0,0,0-1.562,1.282Z" transform="translate(-170.556 -192.507)" fill="#263238"/>
        <path id="Path_778" data-name="Path 778" d="M355.092,222.032c.183.194,1.325-.636,2.963-.636s2.823.8,3,.6-.1-.431-.625-.808a4.31,4.31,0,0,0-4.763,0C355.167,221.6,354.995,221.946,355.092,222.032Z" transform="translate(-170.663 -192.625)" fill="#263238"/>
        <path id="Path_779" data-name="Path 779" d="M370.57,223.736a1.509,1.509,0,0,0,1.465,1.487,1.444,1.444,0,0,0,1.563-1.336,1.509,1.509,0,0,0-1.487-1.487,1.444,1.444,0,0,0-1.541,1.336Z" transform="translate(-169.46 -192.476)" fill="#263238"/>
        <path id="Path_780" data-name="Path 780" d="M369.212,222.282c.183.194,1.336-.636,2.963-.636s2.823.787,3.007.593-.108-.431-.636-.8a4.16,4.16,0,0,0-2.4-.711,4.009,4.009,0,0,0-2.36.744C369.287,221.851,369.115,222.2,369.212,222.282Z" transform="translate(-169.568 -192.605)" fill="#263238"/>
        <path id="Path_781" data-name="Path 781" d="M364.787,234.052a11.012,11.012,0,0,0-2.651-.453c-.409,0-.808-.119-.884-.4a2.026,2.026,0,0,1,.28-1.207l1.228-3.082c1.692-4.4,2.92-8.017,2.748-8.082s-1.713,3.448-3.416,7.845c-.41,1.078-.8,2.155-1.175,3.1a2.328,2.328,0,0,0-.2,1.595,1.078,1.078,0,0,0,.679.593,3.092,3.092,0,0,0,.711.1,10.645,10.645,0,0,0,2.683-.011Z" transform="translate(-170.229 -192.597)" fill="#263238"/>
        <path id="Path_782" data-name="Path 782" d="M369.313,234.11c-.259,0-.259,1.713-1.778,2.942s-3.394,1.078-3.405,1.282.42.334,1.218.345a4.418,4.418,0,0,0,2.845-.97,3.728,3.728,0,0,0,1.379-2.457C369.636,234.53,369.443,234.1,369.313,234.11Z" transform="translate(-169.96 -191.567)" fill="#263238"/>
        <path id="Path_783" data-name="Path 783" d="M369.551,216.486c.162.431,1.789.226,3.707.442s3.459.722,3.707.334c.118-.183-.151-.582-.776-1a6.573,6.573,0,0,0-5.647-.593C369.842,215.937,369.486,216.282,369.551,216.486Z" transform="translate(-169.54 -193.027)" fill="#263238"/>
        <path id="Path_784" data-name="Path 784" d="M355.633,217.776c.291.356,1.412,0,2.759,0s2.5.237,2.759-.14c.118-.183-.065-.55-.56-.884a4.073,4.073,0,0,0-4.45.14C355.665,217.227,355.514,217.6,355.633,217.776Z" transform="translate(-170.622 -192.96)" fill="#263238"/>
        <path id="Path_785" data-name="Path 785" d="M385.328,227.2c.183-.075,7.284-2.155,7.069,4.946s-7.457,5.388-7.457,5.194S385.328,227.2,385.328,227.2Z" transform="translate(-168.345 -192.129)" fill="#a87f69"/>
        <path id="Path_786" data-name="Path 786" d="M386.481,234.561a1.625,1.625,0,0,0,.334.194,1.282,1.282,0,0,0,.938,0,3.017,3.017,0,0,0,1.53-2.683,3.824,3.824,0,0,0-.3-1.778,1.422,1.422,0,0,0-.916-.97.657.657,0,0,0-.754.312c-.108.194-.065.345-.108.356s-.151-.129-.075-.42a.755.755,0,0,1,.291-.431,1.077,1.077,0,0,1,.7-.14,1.767,1.767,0,0,1,1.282,1.078,4.106,4.106,0,0,1,.377,1.983,3.233,3.233,0,0,1-1.94,3,1.358,1.358,0,0,1-1.142-.215C386.481,234.734,386.448,234.572,386.481,234.561Z" transform="translate(-168.227 -191.964)" fill="#9d735e"/>
        <path id="Path_787" data-name="Path 787" d="M383.068,208.36l-30.248.647A13.685,13.685,0,0,1,357.27,204a24.073,24.073,0,0,1,13.7-4.8c4.925-.086,14.968,5.765,18.535,9.073,2.866,2.651,2.845,4.946,2.845,4.946.453,3.825-1.735,8.157-2.608,11.853-.453,1.94-1.325,7.78-1.325,7.78h0c-1.67,0-2.284-1.293-2.026-2.9l.3-6.293a9.386,9.386,0,0,1-2.974-11.1C384.145,212.045,385.061,209.426,383.068,208.36Z" transform="translate(-170.837 -194.276)" fill="#263238"/>
        <path id="Path_788" data-name="Path 788" d="M375.01,228.447a.172.172,0,0,0,.2-.151.183.183,0,0,0-.129-.226.194.194,0,0,0-.216.162.183.183,0,0,0,.14.216Z" transform="translate(-169.127 -192.036)" fill="#eb996e"/>
        <path id="Path_789" data-name="Path 789" d="M372.11,227.821a.236.236,0,1,0-.129-.248.205.205,0,0,0,.129.248Z" transform="translate(-169.351 -192.088)" fill="#eb996e"/>
        <path id="Path_790" data-name="Path 790" d="M370.17,227.791c.1,0,.194-.108.216-.269s0-.291-.151-.3-.194.108-.2.259S370.073,227.78,370.17,227.791Z" transform="translate(-169.502 -192.102)" fill="#eb996e"/>
        <path id="Path_791" data-name="Path 791" d="M373.593,230.206c.1,0,.183-.054.172-.108a.171.171,0,0,0-.172-.119c-.1,0-.183.054-.183.119S373.5,230.206,373.593,230.206Z" transform="translate(-169.24 -191.887)" fill="#eb996e"/>
        <path id="Path_792" data-name="Path 792" d="M370.942,229.629a.2.2,0,1,0-.162-.216.183.183,0,0,0,.162.216Z" transform="translate(-169.444 -191.946)" fill="#eb996e"/>
        <path id="Path_793" data-name="Path 793" d="M357.14,228.027a.194.194,0,1,0-.14-.226A.194.194,0,0,0,357.14,228.027Z" transform="translate(-170.513 -192.069)" fill="#eb996e"/>
        <path id="Path_794" data-name="Path 794" d="M355.172,227.876a.228.228,0,0,0,.2-.2.183.183,0,1,0-.2.2Z" transform="translate(-170.667 -192.079)" fill="#eb996e"/>
        <path id="Path_795" data-name="Path 795" d="M358.881,228.092a.183.183,0,0,0,.2-.119.151.151,0,0,0-.14-.183.157.157,0,1,0-.065.3Z" transform="translate(-170.379 -192.058)" fill="#eb996e"/>
        <path id="Path_796" data-name="Path 796" d="M357.417,230.028a.2.2,0,0,0,.248-.119.183.183,0,0,0-.075-.259.21.21,0,0,0-.172.377Z" transform="translate(-170.488 -191.914)" fill="#eb996e"/>
        <path id="Path_797" data-name="Path 797" d="M355.746,229.681a.151.151,0,0,0,.129-.183.172.172,0,0,0-.216-.1.148.148,0,1,0,.086.28Z" transform="translate(-170.627 -191.933)" fill="#eb996e"/>
        <path id="Path_798" data-name="Path 798" d="M390.123,209.037a8.427,8.427,0,0,0-1.7-7.543,8.955,8.955,0,0,0-7.231-3.233,27.849,27.849,0,0,1-4.224.3c-2.619-.28-4.634-2.317-7.058-3.308a9.343,9.343,0,0,0-10.873,3.168c-.927,1.336-1.53,3-2.931,3.836-1.218.733-2.759.668-4.127,1.078a6.573,6.573,0,0,0-4.526,6.466,7.759,7.759,0,0,0,4.838,6.466,9.882,9.882,0,0,0,8.351-.571c2.285-1.239,4.31-3.341,6.94-3.233s5.065,2.565,7.716,2.047a7.543,7.543,0,0,0,3.481-2.274,6.056,6.056,0,0,1,3.6-2.015c1.422-.086,2.155,1.81,1.649,3.1l6.1-4.224" transform="translate(-171.254 -194.63)" fill="#263238"/>
        <path id="Path_799" data-name="Path 799" d="M353.37,205.132v.108c0,.065.1.162.183.28a4.494,4.494,0,0,0,.862.959,5.388,5.388,0,0,0,7.435-.431,36.192,36.192,0,0,0,2.09-3.1,4.311,4.311,0,0,1,1.466-1.293,4.472,4.472,0,0,1,2-.431,4.655,4.655,0,0,1,2.058.55,3.75,3.75,0,0,1,1.519,1.519,22.032,22.032,0,0,0,1.078,1.983A2.489,2.489,0,0,0,374,206.414a3.8,3.8,0,0,0,2.155-.593,7.352,7.352,0,0,0,1.606-1.293,6.777,6.777,0,0,1,3-2.08,3.9,3.9,0,0,1,3.039.7,5.054,5.054,0,0,1,1.67,2,8.221,8.221,0,0,1,.625,1.9c.108.539.162.97.2,1.25a1.624,1.624,0,0,0,.065.442V208.3a12.016,12.016,0,0,0-.151-1.272,7.944,7.944,0,0,0-.582-1.94,5.388,5.388,0,0,0-1.692-2.1,4.1,4.1,0,0,0-3.233-.765,6.832,6.832,0,0,0-3.125,2.155,7.66,7.66,0,0,1-1.562,1.25,3.653,3.653,0,0,1-1.95.55,2.22,2.22,0,0,1-1.713-1.078c-.41-.582-.679-1.293-1.078-1.961a4.073,4.073,0,0,0-1.627-1.627,4.806,4.806,0,0,0-2.155-.571,4.644,4.644,0,0,0-2.155.463,4.483,4.483,0,0,0-1.552,1.379c-.8,1.078-1.272,2.252-2.047,3.093a5.388,5.388,0,0,1-2.759,1.573,5.151,5.151,0,0,1-2.651-.119,5.486,5.486,0,0,1-1.778-.948,6.726,6.726,0,0,1-1.174-1.25Z" transform="translate(-170.795 -194.141)" fill="#455a64"/>
        <path id="Path_800" data-name="Path 800" d="M348.29,204.93a1.475,1.475,0,0,0-.119.56,4.44,4.44,0,0,0,.151,1.584,5.55,5.55,0,0,0,1.131,2.08,6.7,6.7,0,0,0,2.392,1.692,10.2,10.2,0,0,0,5.28.582,14.086,14.086,0,0,0,1.584-.312,1.745,1.745,0,0,0,.56-.183s-.83.151-2.155.291a10.56,10.56,0,0,1-5.14-.636,6.638,6.638,0,0,1-2.306-1.606,5.538,5.538,0,0,1-1.131-1.961A6.185,6.185,0,0,1,348.29,204.93Z" transform="translate(-171.199 -193.831)" fill="#455a64"/>
        <path id="Path_801" data-name="Path 801" d="M432.469,302c-.183,13.858-8.621,26.627-19.655,35.043s-24.4,13.082-37.716,16.918-26.94,7.015-39.483,12.931c-17.349,8.211-33.405,19.472-43.233,35.981s-13.3,38.2-12.2,57.36l147.446-14.72,8.071-83.782Z" transform="translate(-176.488 -186.3)" fill="#267fc9"/>
        <path id="Path_802" data-name="Path 802" d="M300.213,384.71a3.818,3.818,0,0,1-.377.6l-1.174,1.659c-.517.711-1.164,1.573-1.821,2.629s-1.5,2.209-2.252,3.6-1.681,2.823-2.489,4.494-1.681,3.427-2.522,5.323a90.876,90.876,0,0,0-4.31,12.8,101.007,101.007,0,0,0-2.2,13.308c-.194,2.069-.366,4.041-.42,5.884s-.108,3.567-.129,5.14,0,3,.065,4.246.075,2.328.129,3.233.065,1.509.086,2.026a2.94,2.94,0,0,1,0,.711,3.137,3.137,0,0,1-.108-.7c-.054-.517-.118-1.185-.194-2.015s-.183-1.95-.226-3.233-.162-2.672-.151-4.257,0-3.3.054-5.162.2-3.825.377-5.916a96.98,96.98,0,0,1,2.241-13.394,88.557,88.557,0,0,1,4.31-12.866c.862-1.9,1.681-3.707,2.586-5.334s1.746-3.136,2.554-4.494,1.649-2.511,2.338-3.556,1.358-1.9,1.907-2.6l1.25-1.584a3.373,3.373,0,0,1,.474-.55Z" transform="translate(-176.323 -179.883)" fill="#263238"/>
        <g id="Group_38" data-name="Group 38" transform="translate(103.501 115.7)" opacity="0.4">
          <path id="Path_803" data-name="Path 803" d="M432.469,302c-.183,13.858-8.621,26.627-19.655,35.043s-24.4,13.082-37.716,16.918-26.94,7.015-39.483,12.931c-17.349,8.211-33.405,19.472-43.233,35.981s-13.3,38.2-12.2,57.36l147.446-14.72,8.071-83.782Z" transform="translate(-279.989 -302)"/>
        </g>
      </g>
      <g id="freepik--Plant--inject-2" transform="translate(45.252 281.929)">
        <path id="Path_804" data-name="Path 804" d="M109.409,360.961A52.7,52.7,0,0,0,59.14,347.168,91.519,91.519,0,0,0,110,363.051" transform="translate(-42.06 -258.342)" fill="#267fc9"/>
        <path id="Path_805" data-name="Path 805" d="M91.063,306.861c2.155-14.817-3.664-31.476-14.752-42.241-.366,14.677,5.83,31.2,14.752,42.241" transform="translate(-40.729 -264.62)" fill="#267fc9"/>
        <path id="Path_806" data-name="Path 806" d="M100.805,332.29A79.063,79.063,0,0,0,64.48,297.57a49.925,49.925,0,0,0,36.466,34.871" transform="translate(-41.646 -262.064)" fill="#267fc9"/>
        <path id="Path_807" data-name="Path 807" d="M103.453,335.944c-8.955.248-18.006-.065-26.659-2.36S59.854,326.893,54.1,320.05a88.934,88.934,0,0,1,49.213,15.032" transform="translate(-42.451 -260.319)" fill="#267fc9"/>
        <path id="Path_808" data-name="Path 808" d="M95.68,321.05c4.547-17.015,12.037-28.793,25.42-38.33a35.388,35.388,0,0,1-25.42,38.33" transform="translate(-39.225 -263.216)" fill="#267fc9"/>
        <path id="Path_809" data-name="Path 809" d="M128.1,347.21a25.183,25.183,0,0,0-15.3-23.33c.744,8.782,7.651,18.955,15.3,23.33" transform="translate(-37.897 -260.022)" fill="#267fc9"/>
        <path id="Path_810" data-name="Path 810" d="M131,334.526A37.532,37.532,0,0,1,155.591,302.5c-3.082,14.224-11.315,26.067-24.591,32.026" transform="translate(-36.485 -261.681)" fill="#267fc9"/>
        <path id="Path_811" data-name="Path 811" d="M125,356.595c3.157-4.515,8.308-7.317,13.631-8.718s10.894-1.519,16.4-1.627a38.34,38.34,0,0,1-29.612,12.328" transform="translate(-36.95 -258.287)" fill="#267fc9"/>
        <path id="Path_812" data-name="Path 812" d="M119.08,389.655a42.026,42.026,0,0,1,51.293,24.3c-18.631-3.535-37.015-11.853-51.293-24.3" transform="translate(-37.41 -255.064)" fill="#267fc9"/>
        <path id="Path_813" data-name="Path 813" d="M100.511,377.82c3.093,9.149,2.5,20.2-4.386,28.093a33.578,33.578,0,0,1,4.386-28.093" transform="translate(-39.294 -255.837)" fill="#267fc9"/>
        <path id="Path_814" data-name="Path 814" d="M90.431,373.1a34.483,34.483,0,0,1-19.009,27.909,2.155,2.155,0,0,1-1.681.28c-.841-.345-.916-1.487-.808-2.392,1.347-11.724,10.032-23.06,21.5-25.862" transform="translate(-41.303 -256.208)" fill="#267fc9"/>
        <path id="Path_815" data-name="Path 815" d="M84.518,372.093a28.222,28.222,0,0,1-41.228.2c13.1-1.433,28.233-2.392,41.228-.2" transform="translate(-43.29 -256.382)" fill="#267fc9"/>
        <path id="Path_816" data-name="Path 816" d="M79.73,274.75a3.5,3.5,0,0,0,.129.377c.1.28.226.647.4,1.078.366,1,.894,2.425,1.573,4.246s1.519,4.106,2.468,6.735l1.519,4.2c.517,1.5,1.078,3.082,1.638,4.741,2.317,6.638,4.892,14.612,7.683,23.481s5.6,18.7,8.427,29.041,5.259,20.291,7.36,29.353,3.8,17.241,5.065,24.17c.334,1.724.636,3.373.937,4.925s.506,3.039.744,4.418c.474,2.748.884,5.119,1.153,7.069s.528,3.427.69,4.472c.086.5.14.884.194,1.164s.075.4.075.4a2.219,2.219,0,0,0,0-.4c0-.291-.086-.679-.151-1.175-.14-1.078-.334-2.565-.593-4.494s-.625-4.31-1.078-7.091c-.226-1.379-.463-2.856-.711-4.418l-.894-4.935c-1.228-6.929-2.953-15.086-4.968-24.213s-4.537-19-7.328-29.375-5.711-20.162-8.47-29.095S90.2,302.595,87.8,295.978c-.593-1.659-1.142-3.233-1.67-4.741s-1.078-2.877-1.562-4.192c-.97-2.619-1.81-4.881-2.543-6.7s-1.272-3.233-1.67-4.213c-.183-.463-.334-.819-.442-1.078a2.34,2.34,0,0,0-.183-.3Z" transform="translate(-40.463 -263.834)" fill="#263238"/>
        <path id="Path_817" data-name="Path 817" d="M149.135,309.54l-.226.216-.625.657c-.55.582-1.336,1.455-2.328,2.608a91.752,91.752,0,0,0-7.716,10.291,68.966,68.966,0,0,0-8.071,17.241c-2.155,6.864-3.513,14.677-4.849,22.845-2.662,16.347-5.927,30.981-8.3,41.573L114.178,417.5c-.323,1.455-.571,2.608-.754,3.416-.075.366-.129.657-.183.894a1.551,1.551,0,0,0,0,.3,1.186,1.186,0,0,0,.1-.291,4.615,4.615,0,0,1,.226-.884l.851-3.394c.711-2.985,1.735-7.241,3-12.5,2.457-10.571,5.787-25.2,8.448-41.562,1.336-8.168,2.662-15.959,4.8-22.8a69.61,69.61,0,0,1,7.92-17.241,99.641,99.641,0,0,1,7.543-10.356c.959-1.175,1.735-2.058,2.252-2.662l.593-.7C149.081,309.637,149.146,309.551,149.135,309.54Z" transform="translate(-37.863 -261.135)" fill="#263238"/>
        <path id="Path_818" data-name="Path 818" d="M77.92,371.481a1.712,1.712,0,0,0,.474.086l1.358.151.981.1,1.153.172c.841.118,1.789.248,2.823.474l1.627.323,1.735.442c1.218.269,2.468.722,3.8,1.078a56.734,56.734,0,0,1,8.308,3.653,47.232,47.232,0,0,1,7.435,5.172,35.031,35.031,0,0,1,2.856,2.748,31.1,31.1,0,0,1,2.263,2.6c.69.8,1.175,1.627,1.67,2.306a17.5,17.5,0,0,1,1.142,1.832l.7,1.164a1.843,1.843,0,0,0,.269.4.924.924,0,0,0-.183-.442c-.183-.28-.366-.733-.614-1.218a16.019,16.019,0,0,0-1.078-1.886,27.02,27.02,0,0,0-1.627-2.371,28.919,28.919,0,0,0-2.241-2.672,35.354,35.354,0,0,0-2.856-2.8,45.162,45.162,0,0,0-7.543-5.259,54.331,54.331,0,0,0-8.394-3.664c-1.358-.388-2.619-.819-3.847-1.078l-1.767-.42-1.649-.291c-1.078-.216-1.994-.312-2.834-.409l-1.175-.129-.991-.054H78.351a1.455,1.455,0,0,0-.431,0Z" transform="translate(-40.603 -256.33)" fill="#263238"/>
        <path id="Path_819" data-name="Path 819" d="M74.46,309.84a7.082,7.082,0,0,0,.938.905l2.7,2.338c2.284,1.961,5.474,4.644,9.019,7.543s6.767,5.582,9.116,7.468l2.8,2.22a5.787,5.787,0,0,0,1.078.754,6.851,6.851,0,0,0-.948-.905l-2.694-2.338c-2.3-1.961-5.485-4.644-9.019-7.543s-6.767-5.582-9.116-7.468l-2.8-2.22a5.788,5.788,0,0,0-1.078-.754Z" transform="translate(-40.872 -261.112)" fill="#263238"/>
        <path id="Path_820" data-name="Path 820" d="M71.47,325.931c0,.129,6.843,2.284,15.366,4.8s15.474,4.461,15.517,4.31-6.843-2.285-15.377-4.806S71.5,325.79,71.47,325.931Z" transform="translate(-41.104 -259.864)" fill="#263238"/>
        <path id="Path_821" data-name="Path 821" d="M95.05,321.287a5.39,5.39,0,0,0,.711-.991l1.81-2.8c1.541-2.328,3.728-5.506,6.315-8.89s5.075-6.325,6.907-8.427l2.155-2.489a5.689,5.689,0,0,0,.765-.948,5.576,5.576,0,0,0-.905.819c-.56.539-1.347,1.358-2.306,2.381-1.9,2.047-4.44,4.968-7.037,8.362s-4.741,6.616-6.207,9c-.733,1.2-1.315,2.155-1.692,2.856A5.387,5.387,0,0,0,95.05,321.287Z" transform="translate(-39.274 -262.128)" fill="#263238"/>
        <path id="Path_822" data-name="Path 822" d="M117.23,328.45a24.472,24.472,0,0,0,1.616,2.662c1.078,1.616,2.425,3.858,3.869,6.4s2.662,4.881,3.524,6.595a22.633,22.633,0,0,0,1.466,2.748,17.057,17.057,0,0,0-1.142-2.9c-.787-1.756-1.961-4.138-3.405-6.692s-2.909-4.784-4.019-6.358a16.036,16.036,0,0,0-1.907-2.457Z" transform="translate(-37.553 -259.668)" fill="#263238"/>
        <path id="Path_823" data-name="Path 823" d="M124.82,356.909c0,.065,1.347-.571,3.5-1.541s5.151-2.231,8.534-3.427,6.53-2.069,8.815-2.651,3.707-.894,3.7-.97a3.31,3.31,0,0,0-1.024.108c-.657.1-1.595.269-2.759.517a76.332,76.332,0,0,0-8.89,2.532,75.36,75.36,0,0,0-8.524,3.567c-1.078.528-1.907.981-2.478,1.3A4.191,4.191,0,0,0,124.82,356.909Z" transform="translate(-36.964 -258.126)" fill="#263238"/>
        <path id="Path_824" data-name="Path 824" d="M118.85,389.57a1.605,1.605,0,0,0,.42.14l1.239.313,4.58,1.078a153.1,153.1,0,0,1,14.946,3.955,65.99,65.99,0,0,1,14.009,6.552c1.67,1.078,2.963,1.994,3.836,2.672a14.46,14.46,0,0,0,1.39,1.024,1.972,1.972,0,0,0-.3-.323c-.226-.194-.528-.5-.959-.851a41.8,41.8,0,0,0-3.772-2.823,61.249,61.249,0,0,0-14.009-6.724,123.278,123.278,0,0,0-15.086-3.825l-4.612-.894a11.863,11.863,0,0,0-1.681-.291Z" transform="translate(-37.428 -254.926)" fill="#263238"/>
        <path id="Path_825" data-name="Path 825" d="M97.241,399.327c.14,0,.959-4.806,1.832-10.776s1.476-10.83,1.336-10.851-.959,4.806-1.832,10.776S97.1,399.306,97.241,399.327Z" transform="translate(-39.106 -255.847)" fill="#263238"/>
        <path id="Path_826" data-name="Path 826" d="M74.75,390.874a24.716,24.716,0,0,0,2.155-2.6c1.315-1.627,3.125-3.869,5.183-6.315s3.955-4.612,5.388-6.185a26.062,26.062,0,0,0,2.155-2.6,5.78,5.78,0,0,0-.69.593c-.42.409-1.078,1-1.746,1.756-1.455,1.519-3.405,3.664-5.463,6.11s-3.825,4.741-5.075,6.466c-.614.851-1.078,1.541-1.433,2.026A3.038,3.038,0,0,0,74.75,390.874Z" transform="translate(-40.849 -256.197)" fill="#263238"/>
        <path id="Path_827" data-name="Path 827" d="M137.993,410.46v11.983h-3l-10.647,33.6H100.74L90.428,422.777l-4-.334V410.46Z" transform="translate(-39.943 -253.305)" fill="#455a64"/>
        <path id="Path_828" data-name="Path 828" d="M88.28,421.908c0,.14,10.431.248,23.287.248s23.287-.108,23.287-.248-10.431-.248-23.287-.248S88.28,421.768,88.28,421.908Z" transform="translate(-39.799 -252.436)" fill="#263238"/>
        <path id="Path_829" data-name="Path 829" d="M72.53,350.39a7.541,7.541,0,0,0,1.509.41l4.149,1c3.491.862,8.287,2.155,13.491,3.922s9.817,3.61,13.114,5.032l3.912,1.7a8.9,8.9,0,0,0,1.455.593,9.7,9.7,0,0,0-1.369-.765c-.894-.463-2.209-1.078-3.847-1.853A134.942,134.942,0,0,0,91.83,355.25a136.932,136.932,0,0,0-13.567-3.793c-1.756-.388-3.233-.679-4.181-.84A10.574,10.574,0,0,0,72.53,350.39Z" transform="translate(-41.021 -257.965)" fill="#263238"/>
        <path id="Path_830" data-name="Path 830" d="M95.56,439.218c0,.14,7.317.259,16.336.259s16.336-.118,16.336-.259-7.317-.248-16.336-.248S95.56,439.089,95.56,439.218Z" transform="translate(-39.235 -251.093)" fill="#fafafa"/>
        <path id="Path_831" data-name="Path 831" d="M94.71,436.649c0,.129,7.748.248,17.306.248s17.317-.119,17.317-.248-7.759-.259-17.317-.259S94.71,436.509,94.71,436.649Z" transform="translate(-39.301 -251.293)" fill="#fafafa"/>
      </g>
    </g>
    <path id="Path_832" data-name="Path 832" d="M4.723-1.82,4.73-1.8a1.708,1.708,0,0,1-.562,1.34A2.15,2.15,0,0,1,2.641.082,2.006,2.006,0,0,1,1.068-.6,2.514,2.514,0,0,1,.461-2.336V-3.348a2.521,2.521,0,0,1,.607-1.736A2,2,0,0,1,2.641-5.77a2.208,2.208,0,0,1,1.535.514A1.7,1.7,0,0,1,4.73-3.895l-.008.023H3.984a1.269,1.269,0,0,0-.352-.945,1.351,1.351,0,0,0-.992-.348,1.212,1.212,0,0,0-1.027.52A2.114,2.114,0,0,0,1.23-3.355v1.02a2.127,2.127,0,0,0,.383,1.3,1.212,1.212,0,0,0,1.027.52,1.355,1.355,0,0,0,.992-.346,1.278,1.278,0,0,0,.352-.955Zm.723-.332A2.327,2.327,0,0,1,5.953-3.7,1.7,1.7,0,0,1,7.332-4.3,1.72,1.72,0,0,1,8.721-3.7a2.319,2.319,0,0,1,.51,1.547v.086A2.316,2.316,0,0,1,8.723-.52a1.714,1.714,0,0,1-1.383.6,1.718,1.718,0,0,1-1.385-.6,2.312,2.312,0,0,1-.51-1.545Zm.77.086A2,2,0,0,0,6.5-.957.937.937,0,0,0,7.34-.52a.935.935,0,0,0,.836-.437,1.994,1.994,0,0,0,.285-1.109v-.086a1.988,1.988,0,0,0-.287-1.105A.941.941,0,0,0,7.332-3.7a.928.928,0,0,0-.834.441,2.009,2.009,0,0,0-.283,1.105Zm4.645-2.16.055.555a1.436,1.436,0,0,1,.525-.467,1.579,1.579,0,0,1,.74-.166,1.308,1.308,0,0,1,.725.2,1.181,1.181,0,0,1,.455.586,1.581,1.581,0,0,1,.529-.572,1.385,1.385,0,0,1,.764-.209,1.265,1.265,0,0,1,1.02.443,2.025,2.025,0,0,1,.375,1.334V0h-.77V-2.535a1.4,1.4,0,0,0-.215-.885.783.783,0,0,0-.641-.26.816.816,0,0,0-.639.273,1.19,1.19,0,0,0-.287.691V0h-.773V-2.535A1.386,1.386,0,0,0,12.5-3.4a.766.766,0,0,0-.635-.275,1.057,1.057,0,0,0-.578.145.934.934,0,0,0-.348.406V0h-.77V-4.227Zm6.992,0,.055.555a1.436,1.436,0,0,1,.525-.467,1.579,1.579,0,0,1,.74-.166,1.308,1.308,0,0,1,.725.2,1.181,1.181,0,0,1,.455.586,1.581,1.581,0,0,1,.529-.572,1.385,1.385,0,0,1,.764-.209,1.265,1.265,0,0,1,1.02.443,2.025,2.025,0,0,1,.375,1.334V0h-.77V-2.535a1.4,1.4,0,0,0-.215-.885.783.783,0,0,0-.641-.26.816.816,0,0,0-.639.273,1.19,1.19,0,0,0-.287.691V0h-.773V-2.535a1.386,1.386,0,0,0-.221-.869.766.766,0,0,0-.635-.275,1.057,1.057,0,0,0-.578.145.934.934,0,0,0-.348.406V0h-.77V-4.227ZM26.754,0q-.039-.191-.061-.338a2.48,2.48,0,0,1-.025-.295,1.794,1.794,0,0,1-.561.51,1.434,1.434,0,0,1-.744.205,1.382,1.382,0,0,1-1.006-.338,1.243,1.243,0,0,1-.346-.932,1.092,1.092,0,0,1,.49-.947,2.29,2.29,0,0,1,1.33-.342h.836v-.418a.775.775,0,0,0-.227-.588A.89.89,0,0,0,25.8-3.7a.93.93,0,0,0-.605.188.563.563,0,0,0-.23.449l-.73.008-.008-.023a1.012,1.012,0,0,1,.432-.844A1.789,1.789,0,0,1,25.844-4.3,1.745,1.745,0,0,1,27-3.939a1.294,1.294,0,0,1,.438,1.053V-.852a3.961,3.961,0,0,0,.023.438A2.25,2.25,0,0,0,27.547,0ZM25.477-.562a1.37,1.37,0,0,0,.754-.215,1.021,1.021,0,0,0,.438-.492v-.687H25.8a1.12,1.12,0,0,0-.744.234.7.7,0,0,0-.279.551.58.58,0,0,0,.176.445A.736.736,0,0,0,25.477-.562Zm3.766-3.664L29.3-3.6a1.535,1.535,0,0,1,.529-.521,1.412,1.412,0,0,1,.725-.186,1.38,1.38,0,0,1,1.059.4,1.758,1.758,0,0,1,.375,1.236V0h-.77V-2.652a1.143,1.143,0,0,0-.221-.793.884.884,0,0,0-.674-.234,1.193,1.193,0,0,0-.6.143,1.036,1.036,0,0,0-.393.4V0h-.77V-4.227Zm3.684,2.191a2.821,2.821,0,0,1,.436-1.645A1.4,1.4,0,0,1,34.582-4.3a1.513,1.513,0,0,1,.658.137,1.349,1.349,0,0,1,.49.4V-6.094h.77V0h-.59l-.117-.535a1.372,1.372,0,0,1-.512.461,1.529,1.529,0,0,1-.707.156,1.45,1.45,0,0,1-1.211-.561,2.33,2.33,0,0,1-.437-1.475Zm.77.082a1.794,1.794,0,0,0,.262,1.025.914.914,0,0,0,.813.385A1.019,1.019,0,0,0,35.348-.7a1.167,1.167,0,0,0,.383-.437V-3.109a1.185,1.185,0,0,0-.385-.416,1.017,1.017,0,0,0-.568-.154.88.88,0,0,0-.818.457A2.359,2.359,0,0,0,33.7-2.035ZM39.4.082A1.788,1.788,0,0,1,37.979-.5a2.24,2.24,0,0,1-.51-1.531V-2.2a2.193,2.193,0,0,1,.525-1.506,1.648,1.648,0,0,1,1.283-.6,1.534,1.534,0,0,1,1.271.527,2.173,2.173,0,0,1,.424,1.4v.406h-2.7l-.012.02a1.747,1.747,0,0,0,.281,1.033.983.983,0,0,0,.859.4,1.936,1.936,0,0,0,.686-.111,1.53,1.53,0,0,0,.506-.307l.3.5a1.85,1.85,0,0,1-.6.369A2.381,2.381,0,0,1,39.4.082ZM39.277-3.7a.837.837,0,0,0-.666.311,1.469,1.469,0,0,0-.322.795l.008.02H40.2v-.062a1.231,1.231,0,0,0-.227-.762A.819.819,0,0,0,39.277-3.7Zm5.016,2.563a.513.513,0,0,0-.193-.414,1.866,1.866,0,0,0-.732-.281,3.073,3.073,0,0,1-1.146-.449.907.907,0,0,1-.4-.773,1.115,1.115,0,0,1,.439-.883A1.716,1.716,0,0,1,43.4-4.3a1.7,1.7,0,0,1,1.164.391,1.119,1.119,0,0,1,.426.91l-.008.023h-.734a.665.665,0,0,0-.24-.5A.859.859,0,0,0,43.4-3.7a.876.876,0,0,0-.607.184.573.573,0,0,0-.2.438.464.464,0,0,0,.174.387,1.924,1.924,0,0,0,.717.25,3.029,3.029,0,0,1,1.18.465.936.936,0,0,1,.4.785,1.113,1.113,0,0,1-.455.918,1.877,1.877,0,0,1-1.189.355,1.857,1.857,0,0,1-1.273-.41,1.17,1.17,0,0,1-.441-.957l.008-.023h.734a.712.712,0,0,0,.3.6,1.179,1.179,0,0,0,.668.189,1.052,1.052,0,0,0,.643-.174A.532.532,0,0,0,44.293-1.137Z" transform="translate(104 83)"/>
  </g>
</svg>
