<svg xmlns="http://www.w3.org/2000/svg" xmlns:xlink="http://www.w3.org/1999/xlink" width="806" height="200" viewBox="0 0 806 200">
  <defs>
    <clipPath id="clip-path">
      <path id="Shape" d="M96-268.65a94.031,94.031,0,0,1-37.44-7.488,96.437,96.437,0,0,1-30.528-20.544A96.437,96.437,0,0,1,7.488-327.21,94.031,94.031,0,0,1,0-364.65a93.077,93.077,0,0,1,7.488-37.056,96.437,96.437,0,0,1,20.544-30.528A99.146,99.146,0,0,1,58.56-452.97,92,92,0,0,1,96-460.65a91.074,91.074,0,0,1,37.056,7.68,99.146,99.146,0,0,1,30.528,20.736,99.146,99.146,0,0,1,20.736,30.528A91.074,91.074,0,0,1,192-364.65v18.432H96v-28.8h67.2a48.306,48.306,0,0,0-5.184-21.888,55.8,55.8,0,0,0-14.4-18.048,73.662,73.662,0,0,0-21.5-12.288A73.751,73.751,0,0,0,96-431.85a67.462,67.462,0,0,0-26.5,5.184,64.643,64.643,0,0,0-21.312,14.4,68.43,68.43,0,0,0-14.208,21.5A66.485,66.485,0,0,0,28.8-364.65a67.461,67.461,0,0,0,5.184,26.5,66.151,66.151,0,0,0,14.208,21.312A66.15,66.15,0,0,0,69.5-302.634,67.461,67.461,0,0,0,96-297.45Z" transform="translate(0 460.65)" fill="#fff"/>
    </clipPath>
    <linearGradient id="linear-gradient" x1="0.5" x2="0.5" y2="1" gradientUnits="objectBoundingBox">
      <stop offset="0" stop-color="#268cc6"/>
      <stop offset="1" stop-color="#26a6c5"/>
    </linearGradient>
    <linearGradient id="linear-gradient-2" x1="0.5" x2="0.5" y2="1" gradientUnits="objectBoundingBox">
      <stop offset="0" stop-color="#2697c5"/>
      <stop offset="1" stop-color="#269bc5"/>
    </linearGradient>
    <clipPath id="clip-Logo_with_text">
      <rect width="806" height="200"/>
    </clipPath>
  </defs>
  <g id="Logo_with_text" data-name="Logo with text" clip-path="url(#clip-Logo_with_text)">
    <path id="Text" d="M5.52-40.082A58.333,58.333,0,0,0,7.14-25.7a26.228,26.228,0,0,0,5.9,11.145A29.4,29.4,0,0,0,23.468-7.361a32.379,32.379,0,0,0,14.32,2.268A41.164,41.164,0,0,0,51.265-7.232a23.48,23.48,0,0,0,8.942-5.637l-8.682-7.9a11.408,11.408,0,0,1-5.767,4.147,27.9,27.9,0,0,1-8.618,1.166,30.1,30.1,0,0,1-4.73-.324,13.534,13.534,0,0,1-3.434-.972,15.043,15.043,0,0,1-2.592-1.49,13.636,13.636,0,0,1-2.2-2.009,21.884,21.884,0,0,1-4.082-6.22A30.652,30.652,0,0,1,18.09-36.843H64.224a9.671,9.671,0,0,0,.13-1.749v-2.527q0-34.341-28.121-34.341a28.872,28.872,0,0,0-21.641,9.33Q5.779-56.929,5.52-40.082ZM51.913-46.3l-33.434-.13A24.591,24.591,0,0,1,23.922-59.65q4.406-5.443,12.311-5.443a14.174,14.174,0,0,1,11.533,5.184Q52.042-54.6,51.913-46.3ZM100.638-75.59A45.28,45.28,0,0,0,87.55-74.164,26.493,26.493,0,0,0,77.182-68.2l8.812,7.775a16.921,16.921,0,0,1,6.22-3.758,24.693,24.693,0,0,1,7.516-1.037h.648q14.514.389,14.514,16.069v3.369a42.083,42.083,0,0,0-12.441-1.685q-12.57,0-20.475,5.054-8.034,5.054-8.034,15.81,0,21.512,26.177,21.512,2.462,0,5.313-.13a33.679,33.679,0,0,0,6.155-.907,44.25,44.25,0,0,0,7-2.333A40.713,40.713,0,0,0,126.426-13V-49.8Q126.426-75.59,100.638-75.59ZM101.675-15.2q-15.421,0-15.421-11.533,0-11.015,17.235-11.015,8.294,0,11.274,1.555v17.883a16.822,16.822,0,0,1-5.313,2.268A31.247,31.247,0,0,1,101.675-15.2Zm60.518,0a34.27,34.27,0,0,1-9.2-1.3,14.035,14.035,0,0,1-6.868-3.758Q144.18-18.182,142.3-16.3t-3.823,3.952A10.969,10.969,0,0,0,142.3-9.175a25.426,25.426,0,0,0,5.9,2.2,56.805,56.805,0,0,0,7.387,1.3,73.906,73.906,0,0,0,8.294.454q12.052,0,17.818-5.313t5.767-14.125v-3.5a13.072,13.072,0,0,0-2.138-6.155,16.82,16.82,0,0,0-4.73-4.471,37.1,37.1,0,0,0-7.063-3.5Q169.45-43.84,164.4-45.4q-3.758-1.166-6.415-2.073a21.84,21.84,0,0,1-4.341-1.944A6.417,6.417,0,0,1,151.178-52a9.339,9.339,0,0,1-.778-4.147v-.777a5.686,5.686,0,0,1,1.166-3.5,10.989,10.989,0,0,1,3.045-2.721,15.943,15.943,0,0,1,4.276-1.814,18.545,18.545,0,0,1,4.86-.648,30.485,30.485,0,0,1,7.9.972,15.286,15.286,0,0,1,5.831,2.786q1.425-2.462,2.721-4.795t2.721-4.665a37.688,37.688,0,0,0-8.747-3.11,45.688,45.688,0,0,0-10.432-1.166,30.2,30.2,0,0,0-8.812,1.3,32.121,32.121,0,0,0-7.711,3.434,20.142,20.142,0,0,0-5.637,5.119,11.1,11.1,0,0,0-2.333,6.22v7.257a12.176,12.176,0,0,0,2.4,6.35,18.715,18.715,0,0,0,5.248,4.536,44.307,44.307,0,0,0,7.451,3.5q4.212,1.555,8.877,3.11,2.333.778,4.73,1.555a19.96,19.96,0,0,1,4.212,1.879,9.691,9.691,0,0,1,2.981,2.786,7.109,7.109,0,0,1,1.166,4.147v1.037a6.557,6.557,0,0,1-3.758,6.155Q168.8-15.2,162.193-15.2Zm84.88-58.833h-12.44q-1.036,3.758-1.879,8.1T231-57.318q-1.944,9.33-4.212,19.244a192.276,192.276,0,0,1-5.248,18.726,20.718,20.718,0,0,1-6.091-6.026,41.1,41.1,0,0,1-4.665-10.108,129.513,129.513,0,0,1-3.888-15.68q-1.814-9.4-3.888-22.872H190.7q2.462,16.587,4.795,27.862a128.479,128.479,0,0,0,5.184,18.855,40.289,40.289,0,0,0,6.674,12.052,29.994,29.994,0,0,0,9.525,7.322A39.913,39.913,0,0,1,208.65,3.265a15.5,15.5,0,0,1-10.821,4.212q-.518,0-1.361-.065t-1.879-.194l-1.3,10.626q1.037.13,2.073.194t2.462.065a27.464,27.464,0,0,0,13.348-3.175,35.275,35.275,0,0,0,10.3-8.553,54.619,54.619,0,0,0,7.711-12.57,133.417,133.417,0,0,0,5.767-15.356q2.527-8.164,4.406-16.846t3.564-16.847q1.037-5.313,2.009-9.914T247.073-74.035Zm21.123,0,.13-20.734L256.274-92.7v60.129a38.468,38.468,0,0,0,1.3,11.209,22.509,22.509,0,0,0,3.888,7.322,25.177,25.177,0,0,0,7.127,6.091,21.307,21.307,0,0,0,11.145,2.721,37.42,37.42,0,0,0,16.717-3.628l-2.333-9.978q-7.9,2.98-13.348,2.981A8.685,8.685,0,0,1,275-17.858a26.5,26.5,0,0,1-3.823-3.823,10.441,10.441,0,0,1-1.3-1.879,12.991,12.991,0,0,1-.907-2.2,15.768,15.768,0,0,1-.583-2.916,37.09,37.09,0,0,1-.194-4.147v-31.1h25.529V-74.035Zm62.98-1.3A72.414,72.414,0,0,0,306.3-71.054V-6.519h12.052v-56.63a40.747,40.747,0,0,1,11.015-1.685A41.7,41.7,0,0,1,342.58-62.89l2.073-10.5A44.969,44.969,0,0,0,331.176-75.33Zm44.06-.259a45.28,45.28,0,0,0-13.088,1.426A26.493,26.493,0,0,0,351.781-68.2l8.812,7.775a16.922,16.922,0,0,1,6.22-3.758,24.693,24.693,0,0,1,7.516-1.037h.648q14.514.389,14.514,16.069v3.369a42.084,42.084,0,0,0-12.44-1.685q-12.57,0-20.475,5.054-8.034,5.054-8.035,15.81,0,21.512,26.177,21.512,2.462,0,5.313-.13a33.678,33.678,0,0,0,6.155-.907,44.248,44.248,0,0,0,7-2.333A40.712,40.712,0,0,0,401.024-13V-49.8Q401.024-75.59,375.236-75.59ZM376.273-15.2q-15.421,0-15.421-11.533,0-11.015,17.235-11.015,8.294,0,11.274,1.555v17.883a16.821,16.821,0,0,1-5.313,2.268A31.246,31.246,0,0,1,376.273-15.2ZM443.659-5.093a16.706,16.706,0,0,0,2.073.13h2.592A31.766,31.766,0,0,0,458.5-6.972a28.2,28.2,0,0,0,8.618-5.508L458.3-20.774a21.6,21.6,0,0,1-6.285,3.888,15.69,15.69,0,0,1-6.933,1.037q-18.013-2.2-18.013-24.233,0-12.181,5.443-18.661,5.054-5.832,13.607-6.22a12.7,12.7,0,0,1,6.35,1.1,24.591,24.591,0,0,1,5.831,3.823l8.812-8.164a30.511,30.511,0,0,0-9.59-5.9,29.938,29.938,0,0,0-11.663-1.62q-13.866.389-22.289,9.978-8.812,9.978-8.812,25.659,0,16.069,8.553,25.529Q430.7-6.26,443.659-5.093Zm81.9-68.941H512.6a89.813,89.813,0,0,1-11.339,14,58.635,58.635,0,0,1-13.542,10.367V-106.95l-12.052,2.073V-6.389h12.052V-36.843A48.034,48.034,0,0,1,506.25-25.115,64.74,64.74,0,0,1,518.82-6.389h12.7a77.194,77.194,0,0,0-13.931-22.548,54.1,54.1,0,0,0-21.965-14.514,62.881,62.881,0,0,0,8.683-5.9,87.342,87.342,0,0,0,8.1-7.386,95.119,95.119,0,0,0,7.192-8.359A80.377,80.377,0,0,0,525.559-74.035Z" transform="translate(243 144)"/>
    <g id="Shapes" transform="translate(-1 -2)">
      <g id="Shape-group" transform="translate(5.886 6.214)" clip-path="url(#clip-path)">
        <rect id="Form" width="196.02" height="196.02" transform="translate(-1.804 -2.214)" fill="url(#linear-gradient)"/>
      </g>
      <path id="Shape-2" data-name="Shape" d="M0,0H30.119V30.119H0Z" transform="translate(60.398 91.084)" fill="url(#linear-gradient-2)"/>
    </g>
  </g>
</svg>
