<svg xmlns="http://www.w3.org/2000/svg" xmlns:xlink="http://www.w3.org/1999/xlink" width="806" height="200" viewBox="0 0 806 200">
  <defs>
    <clipPath id="clip-Logo_-_white_with_text">
      <rect width="806" height="200"/>
    </clipPath>
  </defs>
  <g id="Logo_-_white_with_text" data-name="Logo - white with text" clip-path="url(#clip-Logo_-_white_with_text)">
    <path id="Path_3" data-name="Path 3" d="M73.8-12.75Q67.5-4.65,60-1.425A43.738,43.738,0,0,1,42.6,1.8,36.276,36.276,0,0,1,27.75-1.125,33.459,33.459,0,0,1,16.575-9a34.535,34.535,0,0,1-7.05-11.7A41.5,41.5,0,0,1,7.05-35.1a40.22,40.22,0,0,1,2.7-14.925,34.582,34.582,0,0,1,7.5-11.7A33.709,33.709,0,0,1,28.65-69.3,37.671,37.671,0,0,1,43.05-72a35.838,35.838,0,0,1,13.5,2.475,29.263,29.263,0,0,1,10.575,7.2,32.331,32.331,0,0,1,6.825,11.55,46.648,46.648,0,0,1,2.4,15.525v3.75H19.65a24.639,24.639,0,0,0,2.175,8.625,25.052,25.052,0,0,0,4.875,7.2A22.523,22.523,0,0,0,33.75-10.8,21.544,21.544,0,0,0,42.6-9a27.975,27.975,0,0,0,12.9-2.7,29.319,29.319,0,0,0,9.45-7.95ZM63.75-41.4q-.3-9-5.85-14.4T42.6-61.2q-9.75,0-15.75,5.4a22.669,22.669,0,0,0-7.2,14.4ZM93.6-61.2a32.977,32.977,0,0,1,12.825-8.175A44.93,44.93,0,0,1,121.5-72q15.6,0,22.5,7.35t6.9,22.35v30.15q0,3,.3,6.225T151.95,0H140.7a24.577,24.577,0,0,1-.675-5.325q-.075-2.925-.075-5.175h-.3a27.459,27.459,0,0,1-9.225,8.85A26.573,26.573,0,0,1,116.55,1.8,36.707,36.707,0,0,1,106.425.45a25.3,25.3,0,0,1-8.25-3.975A19.649,19.649,0,0,1,92.55-10.05a18.69,18.69,0,0,1-2.1-9q0-8.7,4.5-13.65a27.307,27.307,0,0,1,11.175-7.35,54.958,54.958,0,0,1,14.4-3q7.725-.6,14.175-.6h4.5v-2.1q0-7.65-4.575-11.55T121.8-61.2a34.268,34.268,0,0,0-11.175,1.875,26.834,26.834,0,0,0-9.675,5.775Zm33.9,27.45q-11.25,0-17.85,3.15a10.7,10.7,0,0,0-6.6,10.35q0,6.6,4.425,9.375A20.384,20.384,0,0,0,118.5-8.1a21.533,21.533,0,0,0,8.925-1.725A18.771,18.771,0,0,0,133.8-14.4a19.744,19.744,0,0,0,3.9-6.675,27.24,27.24,0,0,0,1.5-8.175v-4.5Zm46.35,15.3a29.593,29.593,0,0,0,7.575,6.9A19.52,19.52,0,0,0,191.85-9a25.853,25.853,0,0,0,5.475-.6,16.442,16.442,0,0,0,5.025-1.95,11.123,11.123,0,0,0,3.6-3.375A8.586,8.586,0,0,0,207.3-19.8a7.864,7.864,0,0,0-1.275-4.65,11.154,11.154,0,0,0-3.375-3.075,19,19,0,0,0-4.8-2.025q-2.7-.75-5.55-1.35-4.95-1.05-9.45-2.4a30.8,30.8,0,0,1-7.875-3.525,16.6,16.6,0,0,1-5.4-5.625,17.3,17.3,0,0,1-2.025-8.85,17.685,17.685,0,0,1,2.25-9,19.482,19.482,0,0,1,6-6.45,29.4,29.4,0,0,1,8.4-3.9A34.257,34.257,0,0,1,193.8-72a32.173,32.173,0,0,1,13.875,3,21.617,21.617,0,0,1,9.975,9.75L207.9-52.8a18.12,18.12,0,0,0-5.925-6.075A16.359,16.359,0,0,0,193.05-61.2a20.642,20.642,0,0,0-4.875.6,15.224,15.224,0,0,0-4.425,1.8,10.523,10.523,0,0,0-3.225,3.075,7.423,7.423,0,0,0-1.275,4.275,5.5,5.5,0,0,0,1.425,3.825,12.589,12.589,0,0,0,3.9,2.775,34.1,34.1,0,0,0,5.7,2.1q3.225.9,6.675,1.5a67.353,67.353,0,0,1,8.85,2.325,25.582,25.582,0,0,1,7.35,3.825,16.985,16.985,0,0,1,4.95,6,19.657,19.657,0,0,1,1.8,8.85,20.255,20.255,0,0,1-2.4,10.2,19.868,19.868,0,0,1-6.375,6.825,27.968,27.968,0,0,1-9,3.825A44.082,44.082,0,0,1,191.85,1.8,39.515,39.515,0,0,1,176.325-.975Q169.8-3.75,164.55-11.25Zm88.2,34.5q-1.8,4.5-3.675,8.175a24.688,24.688,0,0,1-4.5,6.3,17.975,17.975,0,0,1-6.3,4.05A24.747,24.747,0,0,1,238.65,36a49.59,49.59,0,0,1-5.325-.3,15.1,15.1,0,0,1-5.175-1.5l1.5-10.2a13.82,13.82,0,0,0,3.75.975,39.717,39.717,0,0,0,4.5.225q5.7,0,8.4-3.15a27.6,27.6,0,0,0,4.65-8.4l4.8-13.2L226.65-70.2H240.3l21.75,55.05h.3L283.2-70.2h12.75Zm84.9-76.35h-20.7v35.1q0,3.45.15,6.375a13.2,13.2,0,0,0,1.2,5.1,8.067,8.067,0,0,0,3.15,3.45,11.64,11.64,0,0,0,6,1.275A24.171,24.171,0,0,0,342-9.6a22.053,22.053,0,0,0,5.1-1.8l.45,10.65a26.682,26.682,0,0,1-6.675,1.95,43.353,43.353,0,0,1-6.975.6A25.358,25.358,0,0,1,323.85.15,13.65,13.65,0,0,1,318-4.5a17.315,17.315,0,0,1-2.775-7.425,65.461,65.461,0,0,1-.675-9.825V-60.3h-15.3v-9.9h15.3V-90.15h11.7V-70.2h20.7Zm14.4,6.75q0-4.8-.3-9t-.3-7.65h11.1q0,2.85.15,5.7t.15,5.85h.3a20.249,20.249,0,0,1,3.375-4.95A24.323,24.323,0,0,1,381-67.875a27.663,27.663,0,0,1,6.75-3A28.068,28.068,0,0,1,395.85-72a19.332,19.332,0,0,1,2.4.15,10.548,10.548,0,0,1,2.4.6L399.9-59.4a21.808,21.808,0,0,0-6.3-.9q-10.8,0-15.675,6.975T373.05-34.2V0h-11.7Zm51.9-7.65a32.977,32.977,0,0,1,12.825-8.175A44.93,44.93,0,0,1,441.15-72q15.6,0,22.5,7.35t6.9,22.35v30.15q0,3,.3,6.225T471.6,0H460.35a24.578,24.578,0,0,1-.675-5.325Q459.6-8.25,459.6-10.5h-.3a27.459,27.459,0,0,1-9.225,8.85A26.573,26.573,0,0,1,436.2,1.8,36.707,36.707,0,0,1,426.075.45a25.3,25.3,0,0,1-8.25-3.975A19.649,19.649,0,0,1,412.2-10.05a18.69,18.69,0,0,1-2.1-9q0-8.7,4.5-13.65a27.307,27.307,0,0,1,11.175-7.35,54.958,54.958,0,0,1,14.4-3q7.725-.6,14.175-.6h4.5v-2.1q0-7.65-4.575-11.55T441.45-61.2a34.268,34.268,0,0,0-11.175,1.875A26.834,26.834,0,0,0,420.6-53.55Zm33.9,27.45q-11.25,0-17.85,3.15a10.7,10.7,0,0,0-6.6,10.35q0,6.6,4.425,9.375A20.384,20.384,0,0,0,438.15-8.1a21.533,21.533,0,0,0,8.925-1.725A18.771,18.771,0,0,0,453.45-14.4a19.743,19.743,0,0,0,3.9-6.675,27.241,27.241,0,0,0,1.5-8.175v-4.5ZM492-113.4h11.7v74.1l31.95-30.9H552.3L518.4-38.25,555.75,0H538.5L503.7-36.9V0H492Z" transform="translate(243 141)" fill="#fff"/>
    <g id="Logo" transform="translate(0 -2024)">
      <path id="Shape" d="M96-268.65a94.032,94.032,0,0,1-37.44-7.488,96.437,96.437,0,0,1-30.528-20.544A96.437,96.437,0,0,1,7.488-327.21,94.031,94.031,0,0,1,0-364.65a93.077,93.077,0,0,1,7.488-37.056,96.437,96.437,0,0,1,20.544-30.528A99.147,99.147,0,0,1,58.56-452.97,92,92,0,0,1,96-460.65a91.075,91.075,0,0,1,37.056,7.68,99.147,99.147,0,0,1,30.528,20.736,99.146,99.146,0,0,1,20.736,30.528A91.074,91.074,0,0,1,192-364.65v18.432H96v-28.8h67.2a48.306,48.306,0,0,0-5.184-21.888,55.8,55.8,0,0,0-14.4-18.048,73.661,73.661,0,0,0-21.5-12.288A73.75,73.75,0,0,0,96-431.85a67.461,67.461,0,0,0-26.5,5.184,64.644,64.644,0,0,0-21.312,14.4,68.429,68.429,0,0,0-14.208,21.5A66.485,66.485,0,0,0,28.8-364.65a67.461,67.461,0,0,0,5.184,26.5,66.151,66.151,0,0,0,14.208,21.312A66.15,66.15,0,0,0,69.5-302.634,67.461,67.461,0,0,0,96-297.45Z" transform="translate(5.886 2490.864)" fill="#fff"/>
      <path id="Shape-2" d="M0,0H28.468V28.468H0Z" transform="translate(60.954 2116.322)" fill="#fff"/>
    </g>
  </g>
</svg>
