<svg xmlns="http://www.w3.org/2000/svg" xmlns:xlink="http://www.w3.org/1999/xlink" width="806" height="200" viewBox="0 0 806 200">
  <defs>
    <clipPath id="clip-Logo_-_white_with_text">
      <rect width="806" height="200"/>
    </clipPath>
  </defs>
  <g id="Logo_-_white_with_text" data-name="Logo - white with text" clip-path="url(#clip-Logo_-_white_with_text)">
    <g id="Logo" transform="translate(0 -2024)">
      <path id="Shape" d="M96-268.65a94.032,94.032,0,0,1-37.44-7.488,96.437,96.437,0,0,1-30.528-20.544A96.437,96.437,0,0,1,7.488-327.21,94.031,94.031,0,0,1,0-364.65a93.077,93.077,0,0,1,7.488-37.056,96.437,96.437,0,0,1,20.544-30.528A99.147,99.147,0,0,1,58.56-452.97,92,92,0,0,1,96-460.65a91.075,91.075,0,0,1,37.056,7.68,99.147,99.147,0,0,1,30.528,20.736,99.146,99.146,0,0,1,20.736,30.528A91.074,91.074,0,0,1,192-364.65v18.432H96v-28.8h67.2a48.306,48.306,0,0,0-5.184-21.888,55.8,55.8,0,0,0-14.4-18.048,73.661,73.661,0,0,0-21.5-12.288A73.75,73.75,0,0,0,96-431.85a67.461,67.461,0,0,0-26.5,5.184,64.644,64.644,0,0,0-21.312,14.4,68.429,68.429,0,0,0-14.208,21.5A66.485,66.485,0,0,0,28.8-364.65a67.461,67.461,0,0,0,5.184,26.5,66.151,66.151,0,0,0,14.208,21.312A66.15,66.15,0,0,0,69.5-302.634,67.461,67.461,0,0,0,96-297.45Z" transform="translate(5.886 2490.864)" fill="#fff"/>
      <path id="Shape-2" d="M0,0H28.468V28.468H0Z" transform="translate(60.954 2116.322)" fill="#fff"/>
    </g>
    <path id="Text" d="M5.52-35.742A65.969,65.969,0,0,0,7.14-20.424a28.566,28.566,0,0,0,5.9,11.868A29.441,29.441,0,0,0,23.468-.9a30.61,30.61,0,0,0,14.32,2.415A38.891,38.891,0,0,0,51.265-.759a23.347,23.347,0,0,0,8.942-6L51.524-15.18a11.465,11.465,0,0,1-5.767,4.416A26.323,26.323,0,0,1,37.14-9.522a28.3,28.3,0,0,1-4.73-.345A12.91,12.91,0,0,1,28.976-10.9a14.841,14.841,0,0,1-2.592-1.587,13.99,13.99,0,0,1-2.2-2.139A23.49,23.49,0,0,1,20.1-21.252q-1.62-3.864-2.009-11.04H64.224a10.953,10.953,0,0,0,.13-1.863v-2.691q0-36.57-28.121-36.57-12.7,0-21.641,9.936Q5.779-53.682,5.52-35.742Zm46.393-6.624L18.479-42.5A27.113,27.113,0,0,1,23.922-56.58q4.406-5.8,12.311-5.8a13.828,13.828,0,0,1,11.533,5.52Q52.042-51.2,51.913-42.366Zm48.725-31.188A42.655,42.655,0,0,0,87.55-72.036a26.138,26.138,0,0,0-10.367,6.348l8.812,8.28a16.753,16.753,0,0,1,6.22-4,23.3,23.3,0,0,1,7.516-1.1h.648q14.514.414,14.514,17.112v3.588a39.7,39.7,0,0,0-12.441-1.794q-12.57,0-20.475,5.382-8.034,5.382-8.034,16.836,0,22.908,26.177,22.908,2.462,0,5.313-.138a31.766,31.766,0,0,0,6.155-.966,42.4,42.4,0,0,0,7-2.484,40.173,40.173,0,0,0,7.84-4.83V-46.092Q126.426-73.554,100.638-73.554Zm1.037,64.308q-15.421,0-15.421-12.282,0-11.73,17.235-11.73,8.294,0,11.274,1.656v19.044a16.307,16.307,0,0,1-5.313,2.415A29.427,29.427,0,0,1,101.675-9.246Zm60.518,0a32.324,32.324,0,0,1-9.2-1.38,13.833,13.833,0,0,1-6.868-4q-1.944,2.208-3.823,4.209T138.478-6.21A11.17,11.17,0,0,0,142.3-2.829a24.48,24.48,0,0,0,5.9,2.346A53.671,53.671,0,0,0,155.584.9a69.448,69.448,0,0,0,8.294.483q12.052,0,17.818-5.658t5.767-15.042v-3.726a14.514,14.514,0,0,0-2.138-6.555,17.323,17.323,0,0,0-4.73-4.761,36.248,36.248,0,0,0-7.063-3.726Q169.45-39.744,164.4-41.4q-3.758-1.242-6.415-2.208a21.22,21.22,0,0,1-4.341-2.07,6.676,6.676,0,0,1-2.462-2.76,10.506,10.506,0,0,1-.778-4.416v-.828a6.317,6.317,0,0,1,1.166-3.726,11.258,11.258,0,0,1,3.045-2.9,15.447,15.447,0,0,1,4.276-1.932,17.487,17.487,0,0,1,4.86-.69,28.731,28.731,0,0,1,7.9,1.035,14.917,14.917,0,0,1,5.831,2.967q1.425-2.622,2.721-5.106T182.927-69a36.217,36.217,0,0,0-8.747-3.312,43.032,43.032,0,0,0-10.432-1.242,28.493,28.493,0,0,0-8.812,1.38,31.192,31.192,0,0,0-7.711,3.657,20.667,20.667,0,0,0-5.637,5.451,12.289,12.289,0,0,0-2.333,6.624v7.728a13.472,13.472,0,0,0,2.4,6.762,19.115,19.115,0,0,0,5.248,4.83,43.139,43.139,0,0,0,7.451,3.726q4.212,1.656,8.877,3.312,2.333.828,4.73,1.656a19.381,19.381,0,0,1,4.212,2,9.967,9.967,0,0,1,2.981,2.967,7.934,7.934,0,0,1,1.166,4.416v1.1a7.047,7.047,0,0,1-3.758,6.555Q168.8-9.246,162.193-9.246ZM247.073-71.9h-12.44q-1.036,4-1.879,8.625T231-54.1Q229.06-44.16,226.792-33.6t-5.248,19.941a21.412,21.412,0,0,1-6.091-6.417,45.118,45.118,0,0,1-4.665-10.764,145.341,145.341,0,0,1-3.888-16.7q-1.814-10.005-3.888-24.357H190.7q2.462,17.664,4.795,29.67a143.841,143.841,0,0,0,5.184,20.079,43.749,43.749,0,0,0,6.674,12.834,30.312,30.312,0,0,0,9.525,7.8,42.442,42.442,0,0,1-8.229,11.937A15,15,0,0,1,197.829,14.9q-.518,0-1.361-.069t-1.879-.207l-1.3,11.316q1.037.138,2.073.207t2.462.069a26.122,26.122,0,0,0,13.348-3.381,35.878,35.878,0,0,0,10.3-9.108A58.931,58.931,0,0,0,229.19.345a147.972,147.972,0,0,0,5.767-16.353q2.527-8.694,4.406-17.94t3.564-17.94q1.037-5.658,2.009-10.557T247.073-71.9Zm21.123,0,.13-22.08L256.274-91.77v64.032a43.486,43.486,0,0,0,1.3,11.937A24.521,24.521,0,0,0,261.457-8a25.7,25.7,0,0,0,7.127,6.486,20.288,20.288,0,0,0,11.145,2.9,35.52,35.52,0,0,0,16.717-3.864L294.114-13.11q-7.9,3.174-13.348,3.174A8.363,8.363,0,0,1,275-12.075a27.437,27.437,0,0,1-3.823-4.071,11.174,11.174,0,0,1-1.3-2,14.364,14.364,0,0,1-.907-2.346,17.761,17.761,0,0,1-.583-3.1,42.033,42.033,0,0,1-.194-4.416v-33.12h25.529V-71.9Zm62.98-1.38A68.462,68.462,0,0,0,306.3-68.724V0h12.052V-60.306A38.455,38.455,0,0,1,329.362-62.1a39.363,39.363,0,0,1,13.218,2.07l2.073-11.178A42.436,42.436,0,0,0,331.176-73.278Zm44.06-.276a42.655,42.655,0,0,0-13.088,1.518,26.138,26.138,0,0,0-10.367,6.348l8.812,8.28a16.753,16.753,0,0,1,6.22-4,23.3,23.3,0,0,1,7.516-1.1h.648q14.514.414,14.514,17.112v3.588a39.7,39.7,0,0,0-12.44-1.794q-12.57,0-20.475,5.382-8.034,5.382-8.034,16.836,0,22.908,26.177,22.908,2.462,0,5.313-.138a31.766,31.766,0,0,0,6.155-.966,42.4,42.4,0,0,0,7-2.484,40.173,40.173,0,0,0,7.84-4.83V-46.092Q401.024-73.554,375.236-73.554Zm1.037,64.308q-15.421,0-15.421-12.282,0-11.73,17.235-11.73,8.294,0,11.274,1.656v19.044a16.307,16.307,0,0,1-5.313,2.415A29.427,29.427,0,0,1,376.273-9.246ZM443.659,1.518a15.7,15.7,0,0,0,2.073.138h2.592A30.084,30.084,0,0,0,458.5-.483a28.042,28.042,0,0,0,8.618-5.865L458.3-15.18a21.427,21.427,0,0,1-6.285,4.14,14.824,14.824,0,0,1-6.933,1.1q-18.013-2.346-18.013-25.806,0-12.972,5.443-19.872a17.819,17.819,0,0,1,13.607-6.624,12.02,12.02,0,0,1,6.35,1.173,24.5,24.5,0,0,1,5.831,4.071l8.812-8.694a30.252,30.252,0,0,0-9.59-6.279,28.262,28.262,0,0,0-11.663-1.725Q432-73.278,423.573-63.066q-8.812,10.626-8.812,27.324,0,17.112,8.553,27.186Q430.7.276,443.659,1.518Zm81.9-73.416H512.6a94.784,94.784,0,0,1-11.339,14.9,59.2,59.2,0,0,1-13.542,11.04v-61l-12.052,2.208V.138h12.052v-32.43A47.764,47.764,0,0,1,506.25-19.8,69.369,69.369,0,0,1,518.82.138h12.7a83.233,83.233,0,0,0-13.931-24.012A53.989,53.989,0,0,0,495.624-39.33a62.839,62.839,0,0,0,8.682-6.279,89.629,89.629,0,0,0,8.1-7.866,99.853,99.853,0,0,0,7.192-8.9A86.256,86.256,0,0,0,525.559-71.9Z" transform="translate(243 144)" fill="#fff"/>
  </g>
</svg>
